<?xml version="1.0" encoding="UTF-8" standalone="no"?>
<!-- Created with Inkscape (http://www.inkscape.org/) -->

<svg
   xmlns:dc="http://purl.org/dc/elements/1.1/"
   xmlns:cc="http://creativecommons.org/ns#"
   xmlns:rdf="http://www.w3.org/1999/02/22-rdf-syntax-ns#"
   xmlns:svg="http://www.w3.org/2000/svg"
   xmlns="http://www.w3.org/2000/svg"
   xmlns:sodipodi="http://sodipodi.sourceforge.net/DTD/sodipodi-0.dtd"
   xmlns:inkscape="http://www.inkscape.org/namespaces/inkscape"
   id="svg2"
   version="1.1"
   inkscape:version="0.91 r13725"
   xml:space="preserve"
   width="668.80951"
   height="242.72275"
   viewBox="0 0 668.80951 242.72275"
   sodipodi:docname="bozkurt_pcd.svg"><metadata
     id="metadata8"><rdf:RDF><cc:Work
         rdf:about=""><dc:format>image/svg+xml</dc:format><dc:type
           rdf:resource="http://purl.org/dc/dcmitype/StillImage" /><dc:title></dc:title></cc:Work></rdf:RDF></metadata><defs
     id="defs6"><clipPath
       clipPathUnits="userSpaceOnUse"
       id="clipPath20"><path
         d="m 71.424,117.504 446.976,0 0,154.656 -446.976,0 0,-154.656 z"
         id="path22"
         inkscape:connector-curvature="0" /></clipPath><clipPath
       clipPathUnits="userSpaceOnUse"
       id="clipPath30"><path
         d="m 71.424,117.504 446.976,0 0,154.656 -446.976,0 0,-154.656 z"
         id="path32"
         inkscape:connector-curvature="0" /></clipPath><clipPath
       clipPathUnits="userSpaceOnUse"
       id="clipPath40"><path
         d="m 71.424,117.504 446.976,0 0,154.656 -446.976,0 0,-154.656 z"
         id="path42"
         inkscape:connector-curvature="0" /></clipPath></defs><sodipodi:namedview
     pagecolor="#ffffff"
     bordercolor="#666666"
     borderopacity="1"
     objecttolerance="10"
     gridtolerance="10"
     guidetolerance="10"
     inkscape:pageopacity="0"
     inkscape:pageshadow="2"
     inkscape:window-width="1280"
     inkscape:window-height="751"
     id="namedview4"
     showgrid="false"
     fit-margin-top="0"
     fit-margin-left="0"
     fit-margin-right="0"
     fit-margin-bottom="0"
     inkscape:zoom="0.95721223"
     inkscape:cx="213.01399"
     inkscape:cy="132.02947"
     inkscape:window-x="0"
     inkscape:window-y="1"
     inkscape:window-maximized="1"
     inkscape:current-layer="g10" /><g
     id="g10"
     inkscape:groupmode="layer"
     inkscape:label="bozkurt_pcd"
     transform="matrix(1.25,0,0,-1.25,2.277751,340.825)"><path
       d="m 71.424,117.504 446.976,0 0,154.656 -446.976,0 0,-154.656 z"
       style="fill:#ffffff;fill-opacity:1;fill-rule:nonzero;stroke:none"
       id="path14"
       inkscape:connector-curvature="0" /><path
       d="m 71.424,242.66506 2.79593,-4.08274 2.79593,-15.93659 5.59186,-43.53156 2.79593,-17.37634 2.79593,-12.1176 2.79593,-7.56816 2.79593,-4.24235 2.795929,-1.99303 2.79593,-0.48126 2.795931,0.5982 2.79593,1.44513 2.79593,2.16984 2.79593,2.84363 2.79593,3.52049 2.79593,4.21203 2.79593,4.85419 8.38779,15.7245 2.79593,3.85961 2.79593,1.99217 2.79593,-0.41057 2.79593,-2.8994 2.79593,-4.9217 5.59186,-12.17535 2.79593,-5.26308 2.79593,-3.66644 2.79593,-1.52101 2.79593,1.10253 2.79593,4.29364 2.79593,8.26187 2.79593,13.10764 2.79593,18.36196 5.59186,45.72296 2.79593,18.33599 2.79593,8.04332 2.79593,-4.70828 2.79593,-15.59363 5.59186,-43.80003 2.79593,-19.32931 2.79593,-14.91272 2.79593,-10.44688 2.79593,-6.60304 2.79593,-3.55958 2.79593,-1.24747 2.79593,0.53931 2.79593,2.06363 2.79593,3.52197 2.79593,4.90549 2.79593,5.95132 2.79593,6.26416 2.79593,5.55886 2.79593,3.86031 2.79593,1.5212 2.79593,-0.93536 2.79593,-3.00232 2.79593,-4.29027 2.79593,-4.60505 2.79593,-4.07774 2.79593,-3.19976 5.59186,-5.13968 2.79593,-3.07548 2.79593,-3.77449 5.59186,-8.65137 2.79593,-3.96457 2.79593,-3.20998 2.79593,-2.33665 2.79593,-1.5585 2.79593,-0.97962 2.79593,-0.59256 2.79593,-0.33534 2.79592,-0.14674 2.79594,0.009 2.79592,0.1412 5.59186,0.61322 2.79593,0.49237 2.79593,0.69583 2.79593,1.02005 2.79593,1.536 2.79594,2.3557 2.79592,3.61895 2.79593,5.39501 2.79594,7.48353 5.59186,18.46759 2.79593,7.10747 2.79592,2.90017 2.79593,-1.77446 2.79593,-5.21112 2.79593,-6.61718 2.79593,-6.24044 2.79593,-4.75423 2.79593,-2.72144 2.79593,-0.50592 2.79593,1.54659 2.79593,2.96184 2.79593,3.22995 2.79593,2.12652 2.79593,-0.0162 2.79593,-2.404 2.79593,-4.22692 5.59186,-10.10965 2.79593,-4.38068 2.79593,-3.45036 2.79593,-2.47661 2.79593,-1.61884 2.79593,-0.96038 2.79593,-0.5072 2.79593,-0.20983 2.79593,-0.0103 8.38779,0.30127 2.79593,-0.1432 5.59186,-0.47462 2.79593,0.33867 2.79593,1.39061 2.79593,3.01579 2.79593,5.17311 2.79593,7.55522 5.59186,18.98549 2.79593,7.3286 2.79593,2.87992 2.79593,-2.25804 2.79593,-6.24364 5.59186,-16.06438 2.79593,-6.76518 2.79593,-5.14521 2.79593,-3.5449 2.79593,-2.1992 2.79593,-1.21596 2.79593,-0.5688 2.79593,-0.14533 2.79593,0.15849 2.79593,0.38532 5.59186,1.12224 5.59186,1.26091 2.79593,0.95504 2.79593,1.73676 2.79593,3.32068 2.79593,6.08303 2.79593,10.24311 2.79593,15.60476 2.79593,20.79571 2.79593,23.10517 2.79593,19.60654 0,0"
       style="fill:none;stroke:#ff0000;stroke-width:1;stroke-linecap:square;stroke-linejoin:round;stroke-miterlimit:10;stroke-dasharray:none;stroke-opacity:1"
       id="path24"
       inkscape:connector-curvature="0" /><path
       d="m 71.424,261.8298 2.79593,-2.1829 2.79593,-16.35723 2.79593,-24.43239 2.79593,-25.42855 2.79593,-21.55728 2.79593,-15.92963 2.79593,-10.72863 2.79593,-6.76899 2.795929,-3.98298 2.79593,-2.01981 2.795931,-0.5638 2.79593,0.57884 2.79593,1.48905 2.79593,2.18606 2.79593,2.68943 2.79593,3.03904 5.59186,6.53929 2.79593,3.02059 2.79593,2.36658 2.79593,1.32093 2.79593,0.002 2.79593,-1.37647 2.79593,-2.56461 2.79593,-3.3393 2.79593,-3.57173 2.79593,-3.26277 2.79593,-2.52047 2.79593,-1.49097 2.79593,-0.28467 2.79593,1.06492 2.79593,2.59243 2.79593,4.33872 2.79593,6.2469 2.79593,8.05082 5.59186,18.26194 2.79593,6.93048 2.79593,2.87807 2.79593,-2.23334 2.79593,-6.89496 2.79593,-9.76653 2.79593,-10.3959 2.79593,-9.28123 2.79593,-7.34592 2.79593,-5.36222 2.79593,-3.70862 2.79593,-2.44821 2.79593,-1.51682 2.79593,-0.81034 2.79593,-0.29799 2.79593,0.0619 5.59186,0.67639 2.79593,0.47715 2.79593,0.65386 2.79593,1.04618 2.79593,1.75922 2.79593,2.92094 2.79593,4.72563 2.79593,7.37939 2.79593,10.87853 2.79593,14.64899 5.59186,34.02971 2.79593,11.72931 2.79593,2.80551 2.79593,-7.14424 2.79593,-14.61405 2.79593,-17.62956 2.79593,-16.57812 2.79593,-13.28769 2.79593,-9.57136 2.79593,-6.44711 2.79593,-4.18374 2.79593,-2.6651 2.79593,-1.67221 2.79592,-1.00767 2.79594,-0.52754 2.79592,-0.14036 2.79593,0.20321 2.79593,0.53111 2.79593,0.88295 2.79593,1.34116 2.79593,2.0414 2.79593,3.16467 2.79594,4.92169 2.79592,7.50448 2.79593,10.94242 2.79594,14.84639 2.79593,18.1725 2.79593,19.29952 2.79593,16.69653 2.79592,10.00408 2.79593,0.69961 2.79593,-8.43262 2.79593,-14.76387 2.79593,-17.08911 2.79593,-15.87935 2.79593,-12.61055 2.79593,-8.82372 2.79593,-5.53073 2.79593,-3.14701 2.79593,-1.70858 8.38779,-3.17915 5.59186,-2.38361 2.79593,-0.81966 2.79593,-0.37422 2.79593,0.10674 2.79593,0.56821 2.79593,0.93593 2.79593,1.08021 2.79593,0.86832 2.79593,0.26334 2.79593,-0.62291 2.79593,-1.55931 2.79593,-2.2799 2.79593,-2.58192 2.79593,-2.38959 2.79593,-1.73924 2.79593,-0.70218 2.79593,0.67794 2.79593,2.37226 2.79593,4.28771 2.79593,6.183 2.79593,7.63929 2.79593,8.11133 2.79593,7.08411 2.79593,4.36403 2.79593,0.38651 2.79593,-3.78441 2.79593,-6.94462 5.59186,-16.68259 2.79593,-7.17104 2.79593,-5.73073 2.79593,-4.33197 2.79593,-3.11688 2.79593,-2.1269 2.79593,-1.37079 2.79593,-0.82682 2.79593,-0.44389 2.79593,-0.1601 2.79593,0.0784 2.79593,0.31107 2.79593,0.57127 2.79593,0.91426 2.79593,1.46337 2.79593,2.45804 2.79593,4.28062 2.79593,7.42568 2.79593,12.30068 2.79593,18.69497 2.79593,25.0237 2.79593,28.11366 2.79593,24.59451 0,0"
       style="fill:none;stroke:#000080;stroke-width:1;stroke-linecap:square;stroke-linejoin:round;stroke-miterlimit:10;stroke-dasharray:none;stroke-opacity:1"
       id="path34"
       inkscape:connector-curvature="0" /><path
       d="m 71.424,212.51972 2.79593,-1.32736 2.79593,-8.726 2.79593,-12.97864 2.79593,-13.58131 2.79593,-11.66965 2.79593,-8.71788 2.79593,-5.66692 2.79593,-2.88168 2.795929,-0.42922 2.79593,1.72604 2.795931,3.59025 2.79593,4.96909 2.79593,5.37357 2.79593,4.25737 2.79593,1.565 2.79593,-1.93001 2.79593,-4.99047 8.38779,-19.98679 2.79593,-5.1254 2.79593,-3.91763 2.79593,-2.85094 2.79593,-1.99609 2.79593,-1.35102 2.79593,-0.88139 2.79593,-0.56373 2.79593,-0.28754 2.79593,-0.0697 2.79593,0.17001 2.79593,0.4811 2.79593,0.91748 2.79593,1.5694 2.79593,2.59333 2.79593,4.22786 2.79593,6.77993 2.79593,10.51082 2.79593,15.32047 2.79593,20.28117 2.79593,23.41869 2.79593,22.31202 2.79593,15.58875 2.79593,4.35473 2.79593,-7.88239 2.79593,-17.1392 5.59186,-41.75091 2.79593,-16.92421 2.79593,-12.44098 2.79593,-8.35196 2.79593,-5.16411 2.79593,-2.87862 2.79593,-1.26771 2.79593,-0.0606 2.79593,0.96929 2.79593,1.97925 2.79593,3.03507 2.79593,4.07198 2.79593,4.89041 2.79593,5.22496 2.79593,4.85028 2.79593,3.67914 2.79593,1.84103 2.79593,-0.304 2.79593,-2.28415 2.79593,-3.73226 2.79593,-4.53535 5.59186,-9.45869 2.79593,-4.25615 2.79593,-3.64414 2.79593,-2.91236 2.79593,-2.15401 2.79593,-1.44512 2.79593,-0.82557 2.79593,-0.30039 2.79593,0.14164 2.79592,0.50787 2.79594,0.79996 2.79592,1.0298 2.79593,1.23112 2.79593,1.45131 2.79593,1.73865 2.79593,2.14306 2.79593,2.71128 2.79593,3.45007 2.79594,4.28308 2.79592,5.04777 5.59187,10.99189 2.79593,4.61586 2.79593,2.83411 2.79593,0.27365 2.79592,-2.52077 2.79593,-4.78655 5.59186,-11.84727 2.79593,-4.94391 2.79593,-3.45851 2.79593,-1.69596 2.79593,0.27664 2.79593,2.54853 2.79593,5.27881 2.79593,8.506 2.79593,11.86728 5.59186,28.96863 2.79593,11.11669 2.79593,3.9636 2.79593,-5.06658 2.79593,-12.90984 5.59186,-34.07419 2.79593,-14.18334 2.79593,-10.45094 2.79593,-7.11308 2.79593,-4.63408 2.79593,-2.9726 2.79593,-1.91942 2.79593,-1.26684 2.79593,-0.85722 2.79593,-0.58539 2.79593,-0.38727 2.79593,-0.22356 2.79593,-0.0665 2.79593,0.10566 2.79593,0.31274 2.79593,0.58152 2.79593,0.95205 2.79593,1.46673 2.79593,2.13316 2.79593,2.87261 2.79593,3.49032 2.79593,3.71284 2.79593,3.30828 2.79593,2.24082 2.79593,0.75344 2.79593,-0.71269 2.79593,-1.73763 2.79593,-2.12546 2.79593,-1.9447 2.79593,-1.41151 2.79593,-0.74247 2.79593,-0.088 2.79593,0.44918 8.38779,2.43496 2.79593,0.53543 5.59186,0.84889 2.79593,1.06222 2.79593,2.2737 2.79593,4.21381 2.79593,6.91896 2.79593,10.18804 2.79593,13.24206 2.79593,14.58566 2.79593,12.59159 0,0"
       style="fill:none;stroke:#008000;stroke-width:1;stroke-linecap:square;stroke-linejoin:round;stroke-miterlimit:10;stroke-dasharray:none;stroke-opacity:1"
       id="path44"
       inkscape:connector-curvature="0" /><path
       inkscape:connector-curvature="0"
       id="path48"
       style="fill:none;stroke:#000000;stroke-width:1;stroke-linecap:square;stroke-linejoin:miter;stroke-miterlimit:10;stroke-dasharray:none;stroke-opacity:1"
       d="m 518.4,117.504 0,154.656" /><path
       inkscape:connector-curvature="0"
       id="path50"
       style="fill:none;stroke:#000000;stroke-width:1;stroke-linecap:square;stroke-linejoin:miter;stroke-miterlimit:10;stroke-dasharray:none;stroke-opacity:1"
       d="m 71.424,117.504 0,154.656" /><path
       inkscape:connector-curvature="0"
       id="path52"
       style="fill:none;stroke:#000000;stroke-width:1;stroke-linecap:square;stroke-linejoin:miter;stroke-miterlimit:10;stroke-dasharray:none;stroke-opacity:1"
       d="m 71.424,117.504 446.976,0" /><path
       inkscape:connector-curvature="0"
       id="path54"
       style="fill:none;stroke:#000000;stroke-width:1;stroke-linecap:square;stroke-linejoin:miter;stroke-miterlimit:10;stroke-dasharray:none;stroke-opacity:1"
       d="m 71.424,272.16 446.976,0" /><path
       inkscape:connector-curvature="0"
       id="path56"
       style="fill:#000000;fill-opacity:1;fill-rule:nonzero;stroke:#000000;stroke-width:0.5;stroke-linecap:butt;stroke-linejoin:round;stroke-miterlimit:10;stroke-dasharray:none;stroke-opacity:1"
       d="m 71.424,117.504 0,4" /><path
       inkscape:connector-curvature="0"
       id="path58"
       style="fill:#000000;fill-opacity:1;fill-rule:nonzero;stroke:#000000;stroke-width:0.5;stroke-linecap:butt;stroke-linejoin:round;stroke-miterlimit:10;stroke-dasharray:none;stroke-opacity:1"
       d="m 71.424,272.16 0,-4" /><text
       id="text60"
       style="font-variant:normal;font-weight:normal;font-size:12px;font-family:'Bitstream Vera Sans';-inkscape-font-specification:BitstreamVeraSans-Roman;writing-mode:lr-tb;fill:#000000;fill-opacity:1;fill-rule:nonzero;stroke:none"
       transform="scale(1,-1)"
       x="67.603683"
       y="-104.379"><tspan
         id="tspan62"
         y="-104.379"
         x="67.603683">0</tspan></text>
<path
       inkscape:connector-curvature="0"
       id="path64"
       style="fill:#000000;fill-opacity:1;fill-rule:nonzero;stroke:#000000;stroke-width:0.5;stroke-linecap:butt;stroke-linejoin:round;stroke-miterlimit:10;stroke-dasharray:none;stroke-opacity:1"
       d="m 145.98213,117.504 0,4" /><path
       inkscape:connector-curvature="0"
       id="path66"
       style="fill:#000000;fill-opacity:1;fill-rule:nonzero;stroke:#000000;stroke-width:0.5;stroke-linecap:butt;stroke-linejoin:round;stroke-miterlimit:10;stroke-dasharray:none;stroke-opacity:1"
       d="m 145.98213,272.16 0,-4" /><text
       id="text68"
       style="font-variant:normal;font-weight:normal;font-size:12px;font-family:'Bitstream Vera Sans';-inkscape-font-specification:BitstreamVeraSans-Roman;writing-mode:lr-tb;fill:#000000;fill-opacity:1;fill-rule:nonzero;stroke:none"
       transform="scale(1,-1)"
       x="134.52119"
       y="-104.379"><tspan
         id="tspan70"
         sodipodi:role="line"
         y="-104.379"
         x="134.52119 142.15318 149.78519">200</tspan></text>
<path
       inkscape:connector-curvature="0"
       id="path72"
       style="fill:#000000;fill-opacity:1;fill-rule:nonzero;stroke:#000000;stroke-width:0.5;stroke-linecap:butt;stroke-linejoin:round;stroke-miterlimit:10;stroke-dasharray:none;stroke-opacity:1"
       d="m 220.54026,117.504 0,4" /><path
       inkscape:connector-curvature="0"
       id="path74"
       style="fill:#000000;fill-opacity:1;fill-rule:nonzero;stroke:#000000;stroke-width:0.5;stroke-linecap:butt;stroke-linejoin:round;stroke-miterlimit:10;stroke-dasharray:none;stroke-opacity:1"
       d="m 220.54026,272.16 0,-4" /><text
       id="text76"
       style="font-variant:normal;font-weight:normal;font-size:12px;font-family:'Bitstream Vera Sans';-inkscape-font-specification:BitstreamVeraSans-Roman;writing-mode:lr-tb;fill:#000000;fill-opacity:1;fill-rule:nonzero;stroke:none"
       transform="scale(1,-1)"
       x="209.07933"
       y="-104.379"><tspan
         id="tspan78"
         sodipodi:role="line"
         y="-104.379"
         x="209.07933 216.71133 224.34332">400</tspan></text>
<path
       inkscape:connector-curvature="0"
       id="path80"
       style="fill:#000000;fill-opacity:1;fill-rule:nonzero;stroke:#000000;stroke-width:0.5;stroke-linecap:butt;stroke-linejoin:round;stroke-miterlimit:10;stroke-dasharray:none;stroke-opacity:1"
       d="m 295.09839,117.504 0,4" /><path
       inkscape:connector-curvature="0"
       id="path82"
       style="fill:#000000;fill-opacity:1;fill-rule:nonzero;stroke:#000000;stroke-width:0.5;stroke-linecap:butt;stroke-linejoin:round;stroke-miterlimit:10;stroke-dasharray:none;stroke-opacity:1"
       d="m 295.09839,272.16 0,-4" /><text
       id="text84"
       style="font-variant:normal;font-weight:normal;font-size:12px;font-family:'Bitstream Vera Sans';-inkscape-font-specification:BitstreamVeraSans-Roman;writing-mode:lr-tb;fill:#000000;fill-opacity:1;fill-rule:nonzero;stroke:none"
       transform="scale(1,-1)"
       x="283.63745"
       y="-104.379"><tspan
         id="tspan86"
         sodipodi:role="line"
         y="-104.379"
         x="283.63745 291.26947 298.90146">600</tspan></text>
<path
       inkscape:connector-curvature="0"
       id="path88"
       style="fill:#000000;fill-opacity:1;fill-rule:nonzero;stroke:#000000;stroke-width:0.5;stroke-linecap:butt;stroke-linejoin:round;stroke-miterlimit:10;stroke-dasharray:none;stroke-opacity:1"
       d="m 369.65653,117.504 0,4" /><path
       inkscape:connector-curvature="0"
       id="path90"
       style="fill:#000000;fill-opacity:1;fill-rule:nonzero;stroke:#000000;stroke-width:0.5;stroke-linecap:butt;stroke-linejoin:round;stroke-miterlimit:10;stroke-dasharray:none;stroke-opacity:1"
       d="m 369.65653,272.16 0,-4" /><text
       id="text92"
       style="font-variant:normal;font-weight:normal;font-size:12px;font-family:'Bitstream Vera Sans';-inkscape-font-specification:BitstreamVeraSans-Roman;writing-mode:lr-tb;fill:#000000;fill-opacity:1;fill-rule:nonzero;stroke:none"
       transform="scale(1,-1)"
       x="358.19559"
       y="-104.379"><tspan
         id="tspan94"
         sodipodi:role="line"
         y="-104.379"
         x="358.19559 365.82758 373.45959">800</tspan></text>
<path
       inkscape:connector-curvature="0"
       id="path96"
       style="fill:#000000;fill-opacity:1;fill-rule:nonzero;stroke:#000000;stroke-width:0.5;stroke-linecap:butt;stroke-linejoin:round;stroke-miterlimit:10;stroke-dasharray:none;stroke-opacity:1"
       d="m 444.21466,117.504 0,4" /><path
       inkscape:connector-curvature="0"
       id="path98"
       style="fill:#000000;fill-opacity:1;fill-rule:nonzero;stroke:#000000;stroke-width:0.5;stroke-linecap:butt;stroke-linejoin:round;stroke-miterlimit:10;stroke-dasharray:none;stroke-opacity:1"
       d="m 444.21466,272.16 0,-4" /><text
       id="text100"
       style="font-variant:normal;font-weight:normal;font-size:12px;font-family:'Bitstream Vera Sans';-inkscape-font-specification:BitstreamVeraSans-Roman;writing-mode:lr-tb;fill:#000000;fill-opacity:1;fill-rule:nonzero;stroke:none"
       transform="scale(1,-1)"
       x="428.93341"
       y="-104.379"><tspan
         id="tspan102"
         sodipodi:role="line"
         y="-104.379"
         x="428.93341 436.5654 444.19742 451.82941">1000</tspan></text>
<text
       id="text104"
       style="font-variant:normal;font-weight:normal;font-size:12px;font-family:'Bitstream Vera Sans';-inkscape-font-specification:BitstreamVeraSans-Roman;writing-mode:lr-tb;fill:#000000;fill-opacity:1;fill-rule:nonzero;stroke:none"
       transform="scale(1,-1)"
       x="503.49155"
       y="-104.379"><tspan
         id="tspan106"
         sodipodi:role="line"
         y="-104.379"
         x="503.49155 511.12354 518.75555 526.38751">1200</tspan></text>
<text
       id="text108"
       style="font-variant:normal;font-weight:normal;font-size:12px;font-family:'Bitstream Vera Sans';-inkscape-font-specification:BitstreamVeraSans-Roman;writing-mode:lr-tb;fill:#000000;fill-opacity:1;fill-rule:nonzero;stroke:none"
       transform="scale(1,-1)"
       x="170.04913"
       y="-81.903671"><tspan
         id="tspan110"
         sodipodi:role="line"
         style="font-style:normal;font-variant:normal;font-weight:normal;font-stretch:normal;font-size:16px;font-family:'Times New Roman';-inkscape-font-specification:'Times New Roman, '"
         x="170.04913"
         y="-81.903671">Pitch class with respect to tonic (cents)</tspan></text>
<path
       inkscape:connector-curvature="0"
       id="path112"
       style="fill:#000000;fill-opacity:1;fill-rule:nonzero;stroke:#000000;stroke-width:0.5;stroke-linecap:butt;stroke-linejoin:round;stroke-miterlimit:10;stroke-dasharray:none;stroke-opacity:1"
       d="m 71.424,117.504 4,0" /><path
       inkscape:connector-curvature="0"
       id="path114"
       style="fill:#000000;fill-opacity:1;fill-rule:nonzero;stroke:#000000;stroke-width:0.5;stroke-linecap:butt;stroke-linejoin:round;stroke-miterlimit:10;stroke-dasharray:none;stroke-opacity:1"
       d="m 518.4,117.504 -4,0" /><text
       id="text116"
       style="font-variant:normal;font-weight:normal;font-size:12px;font-family:'Bitstream Vera Sans';-inkscape-font-specification:BitstreamVeraSans-Roman;writing-mode:lr-tb;fill:#000000;fill-opacity:1;fill-rule:nonzero;stroke:none"
       transform="scale(1,-1)"
       x="25.408375"
       y="-114.1915"><tspan
         id="tspan118"
         sodipodi:role="line"
         y="-114.1915"
         x="25.408375 33.040375 36.856377 44.488377 52.120377 59.752377">0.0000</tspan></text>
<path
       inkscape:connector-curvature="0"
       id="path120"
       style="fill:#000000;fill-opacity:1;fill-rule:nonzero;stroke:#000000;stroke-width:0.5;stroke-linecap:butt;stroke-linejoin:round;stroke-miterlimit:10;stroke-dasharray:none;stroke-opacity:1"
       d="m 71.424,139.59771 4,0" /><path
       inkscape:connector-curvature="0"
       id="path122"
       style="fill:#000000;fill-opacity:1;fill-rule:nonzero;stroke:#000000;stroke-width:0.5;stroke-linecap:butt;stroke-linejoin:round;stroke-miterlimit:10;stroke-dasharray:none;stroke-opacity:1"
       d="m 518.4,139.59771 -4,0" /><path
       inkscape:connector-curvature="0"
       id="path128"
       style="fill:#000000;fill-opacity:1;fill-rule:nonzero;stroke:#000000;stroke-width:0.5;stroke-linecap:butt;stroke-linejoin:round;stroke-miterlimit:10;stroke-dasharray:none;stroke-opacity:1"
       d="m 71.424,161.69143 4,0" /><path
       inkscape:connector-curvature="0"
       id="path130"
       style="fill:#000000;fill-opacity:1;fill-rule:nonzero;stroke:#000000;stroke-width:0.5;stroke-linecap:butt;stroke-linejoin:round;stroke-miterlimit:10;stroke-dasharray:none;stroke-opacity:1"
       d="m 518.4,161.69143 -4,0" /><text
       id="text132"
       style="font-variant:normal;font-weight:normal;font-size:12px;font-family:'Bitstream Vera Sans';-inkscape-font-specification:BitstreamVeraSans-Roman;writing-mode:lr-tb;fill:#000000;fill-opacity:1;fill-rule:nonzero;stroke:none"
       transform="scale(1,-1)"
       x="25.408375"
       y="-158.37894"><tspan
         id="tspan134"
         sodipodi:role="line"
         y="-158.37894"
         x="25.408375 33.040375 36.856377 44.488377 52.120377 59.752377">0.0010</tspan></text>
<path
       inkscape:connector-curvature="0"
       id="path136"
       style="fill:#000000;fill-opacity:1;fill-rule:nonzero;stroke:#000000;stroke-width:0.5;stroke-linecap:butt;stroke-linejoin:round;stroke-miterlimit:10;stroke-dasharray:none;stroke-opacity:1"
       d="m 71.424,183.78514 4,0" /><path
       inkscape:connector-curvature="0"
       id="path138"
       style="fill:#000000;fill-opacity:1;fill-rule:nonzero;stroke:#000000;stroke-width:0.5;stroke-linecap:butt;stroke-linejoin:round;stroke-miterlimit:10;stroke-dasharray:none;stroke-opacity:1"
       d="m 518.4,183.78514 -4,0" /><path
       inkscape:connector-curvature="0"
       id="path144"
       style="fill:#000000;fill-opacity:1;fill-rule:nonzero;stroke:#000000;stroke-width:0.5;stroke-linecap:butt;stroke-linejoin:round;stroke-miterlimit:10;stroke-dasharray:none;stroke-opacity:1"
       d="m 71.424,205.87886 4,0" /><path
       inkscape:connector-curvature="0"
       id="path146"
       style="fill:#000000;fill-opacity:1;fill-rule:nonzero;stroke:#000000;stroke-width:0.5;stroke-linecap:butt;stroke-linejoin:round;stroke-miterlimit:10;stroke-dasharray:none;stroke-opacity:1"
       d="m 518.4,205.87886 -4,0" /><text
       id="text148"
       style="font-variant:normal;font-weight:normal;font-size:12px;font-family:'Bitstream Vera Sans';-inkscape-font-specification:BitstreamVeraSans-Roman;writing-mode:lr-tb;fill:#000000;fill-opacity:1;fill-rule:nonzero;stroke:none"
       transform="scale(1,-1)"
       x="25.408375"
       y="-202.56636"><tspan
         id="tspan150"
         sodipodi:role="line"
         y="-202.56636"
         x="25.408375 33.040375 36.856377 44.488377 52.120377 59.752377">0.0020</tspan></text>
<path
       inkscape:connector-curvature="0"
       id="path152"
       style="fill:#000000;fill-opacity:1;fill-rule:nonzero;stroke:#000000;stroke-width:0.5;stroke-linecap:butt;stroke-linejoin:round;stroke-miterlimit:10;stroke-dasharray:none;stroke-opacity:1"
       d="m 71.424,227.97257 4,0" /><path
       inkscape:connector-curvature="0"
       id="path154"
       style="fill:#000000;fill-opacity:1;fill-rule:nonzero;stroke:#000000;stroke-width:0.5;stroke-linecap:butt;stroke-linejoin:round;stroke-miterlimit:10;stroke-dasharray:none;stroke-opacity:1"
       d="m 518.4,227.97257 -4,0" /><path
       inkscape:connector-curvature="0"
       id="path160"
       style="fill:#000000;fill-opacity:1;fill-rule:nonzero;stroke:#000000;stroke-width:0.5;stroke-linecap:butt;stroke-linejoin:round;stroke-miterlimit:10;stroke-dasharray:none;stroke-opacity:1"
       d="m 71.424,250.06629 4,0" /><path
       inkscape:connector-curvature="0"
       id="path162"
       style="fill:#000000;fill-opacity:1;fill-rule:nonzero;stroke:#000000;stroke-width:0.5;stroke-linecap:butt;stroke-linejoin:round;stroke-miterlimit:10;stroke-dasharray:none;stroke-opacity:1"
       d="m 518.4,250.06629 -4,0" /><text
       id="text164"
       style="font-variant:normal;font-weight:normal;font-size:12px;font-family:'Bitstream Vera Sans';-inkscape-font-specification:BitstreamVeraSans-Roman;writing-mode:lr-tb;fill:#000000;fill-opacity:1;fill-rule:nonzero;stroke:none"
       transform="scale(1,-1)"
       x="25.408375"
       y="-246.75378"><tspan
         id="tspan166"
         sodipodi:role="line"
         y="-246.75378"
         x="25.408375 33.040375 36.856377 44.488377 52.120377 59.752377">0.0030</tspan></text>
<path
       inkscape:connector-curvature="0"
       id="path168"
       style="fill:#000000;fill-opacity:1;fill-rule:nonzero;stroke:#000000;stroke-width:0.5;stroke-linecap:butt;stroke-linejoin:round;stroke-miterlimit:10;stroke-dasharray:none;stroke-opacity:1"
       d="m 71.424,272.16 4,0" /><path
       inkscape:connector-curvature="0"
       id="path170"
       style="fill:#000000;fill-opacity:1;fill-rule:nonzero;stroke:#000000;stroke-width:0.5;stroke-linecap:butt;stroke-linejoin:round;stroke-miterlimit:10;stroke-dasharray:none;stroke-opacity:1"
       d="m 518.4,272.16 -4,0" /><text
       id="text176"
       style="font-variant:normal;font-weight:normal;font-size:12px;font-family:'Bitstream Vera Sans';-inkscape-font-specification:BitstreamVeraSans-Roman;writing-mode:lr-tb;fill:#000000;fill-opacity:1;fill-rule:nonzero;stroke:none"
       transform="matrix(0,1,1,0,0,0)"
       x="126.90485"
       y="9.2871742"><tspan
         id="tspan178"
         sodipodi:role="line"
         x="126.90485"
         y="9.2871742"
         style="font-style:normal;font-variant:normal;font-weight:normal;font-stretch:normal;font-size:16px;font-family:'Times New Roman';-inkscape-font-specification:'Times New Roman, '">Relative occurence</tspan></text>
<path
       inkscape:connector-curvature="0"
       id="path180"
       style="fill:#ffffff;fill-opacity:1;fill-rule:nonzero;stroke:#000000;stroke-width:1;stroke-linecap:butt;stroke-linejoin:miter;stroke-miterlimit:10;stroke-dasharray:none;stroke-opacity:1"
       d="m 401.485,198.39937 109.715,0 0,66.56063 -109.715,0 0,-66.56063 z" /><path
       inkscape:connector-curvature="0"
       id="path182"
       style="fill:none;stroke:#ff0000;stroke-width:1;stroke-linecap:square;stroke-linejoin:round;stroke-miterlimit:10;stroke-dasharray:none;stroke-opacity:1"
       d="m 411.565,253.59937 20.16,0" /><text
       id="text184"
       style="font-variant:normal;font-weight:normal;font-size:14.39999962px;font-family:'Bitstream Vera Sans';-inkscape-font-specification:BitstreamVeraSans-Roman;writing-mode:lr-tb;fill:#000000;fill-opacity:1;fill-rule:nonzero;stroke:none"
       transform="scale(1,-1)"
       x="447.565"
       y="-248.55937"><tspan
         id="tspan186"
         sodipodi:role="line"
         style="font-style:normal;font-variant:normal;font-weight:normal;font-stretch:normal;font-family:'Times New Roman';-inkscape-font-specification:'Times New Roman, '"
         x="447.565"
         y="-248.55937">Saba</tspan></text>
<path
       inkscape:connector-curvature="0"
       id="path188"
       style="fill:none;stroke:#000080;stroke-width:1;stroke-linecap:square;stroke-linejoin:round;stroke-miterlimit:10;stroke-dasharray:none;stroke-opacity:1"
       d="m 411.565,232.8525 20.16,0" /><text
       id="text190"
       style="font-style:normal;font-variant:normal;font-weight:normal;font-stretch:normal;font-size:14.39999962px;font-family:'Times New Roman';-inkscape-font-specification:'Times New Roman, ';writing-mode:lr-tb;fill:#000000;fill-opacity:1;fill-rule:nonzero;stroke:none"
       transform="scale(1,-1)"
       x="447.565"
       y="-227.8125"><tspan
         id="tspan192"
         sodipodi:role="line"
         x="447.565"
         y="-227.8125">Hüseyni</tspan></text>
<path
       inkscape:connector-curvature="0"
       id="path194"
       style="fill:none;stroke:#008000;stroke-width:1;stroke-linecap:square;stroke-linejoin:round;stroke-miterlimit:10;stroke-dasharray:none;stroke-opacity:1"
       d="m 411.565,212.10562 20.16,0" /><text
       id="text196"
       style="font-style:normal;font-variant:normal;font-weight:normal;font-stretch:normal;font-size:14.39999962px;font-family:'Times New Roman';-inkscape-font-specification:'Times New Roman, ';writing-mode:lr-tb;fill:#000000;fill-opacity:1;fill-rule:nonzero;stroke:none"
       transform="scale(1,-1)"
       x="447.565"
       y="-207.06561"><tspan
         id="tspan198"
         sodipodi:role="line"
         x="447.565"
         y="-207.06561">Hüzzam</tspan></text>
</g></svg>