<?xml version="1.0" encoding="utf-8" standalone="no"?>
<!DOCTYPE svg PUBLIC "-//W3C//DTD SVG 1.1//EN"
  "http://www.w3.org/Graphics/SVG/1.1/DTD/svg11.dtd">
<!-- Created with matplotlib (http://matplotlib.org/) -->
<svg height="288pt" version="1.1" viewBox="0 0 432 288" width="432pt" xmlns="http://www.w3.org/2000/svg" xmlns:xlink="http://www.w3.org/1999/xlink">
 <defs>
  <style type="text/css">
*{stroke-linecap:butt;stroke-linejoin:round;stroke-miterlimit:100000;}
  </style>
 </defs>
 <g id="figure_1">
  <g id="patch_1">
   <path d="M 0 288 
L 432 288 
L 432 0 
L 0 0 
z
" style="fill:#ffffff;"/>
  </g>
  <g id="axes_1">
   <g id="patch_2">
    <path d="M 54 252 
L 388.8 252 
L 388.8 28.8 
L 54 28.8 
z
" style="fill:#ffffff;"/>
   </g>
   <g id="line2d_1">
    <path clip-path="url(#pa75a625027)" d="M 54 66.84716 
L 56.10566 32.209181 
L 58.211321 155.146052 
L 60.316981 208.544922 
L 62.422642 229.754464 
L 64.528302 240.168219 
L 66.633962 243.334223 
L 70.845283 247.911042 
L 72.950943 248.884785 
L 75.056604 250.349102 
L 77.162264 250.331186 
L 79.267925 248.582422 
L 81.373585 247.835987 
L 83.479245 247.913293 
L 85.584906 248.880063 
L 87.690566 249.116729 
L 89.796226 250.602304 
L 91.901887 250.03225 
L 94.007547 250.149201 
L 96.113208 249.911537 
L 98.218868 249.930116 
L 100.324528 249.173713 
L 102.430189 249.580188 
L 104.535849 248.48695 
L 106.641509 250.467819 
L 108.74717 249.403629 
L 110.85283 243.835157 
L 112.958491 243.513284 
L 115.064151 246.731861 
L 117.169811 249.051819 
L 119.275472 250.394625 
L 121.381132 249.836236 
L 123.486792 250.507617 
L 125.592453 249.846605 
L 127.698113 249.385705 
L 129.803774 247.963134 
L 131.909434 245.32227 
L 134.015094 240.709923 
L 136.120755 239.628568 
L 138.226415 240.253557 
L 140.332075 243.767422 
L 142.437736 246.415405 
L 144.543396 246.651773 
L 146.649057 248.119854 
L 148.754717 250.254389 
L 152.966038 250.512812 
L 155.071698 250.77834 
L 157.177358 250.726156 
L 159.283019 248.520108 
L 161.388679 248.920051 
L 163.49434 248.083416 
L 165.6 247.901738 
L 167.70566 248.201019 
L 169.811321 249.006689 
L 171.916981 249.937572 
L 174.022642 249.090789 
L 176.128302 249.500774 
L 178.233962 249.521365 
L 180.339623 250.530323 
L 182.445283 250.010985 
L 184.550943 249.78943 
L 186.656604 248.221182 
L 188.762264 246.040561 
L 190.867925 235.880851 
L 192.973585 223.196 
L 195.079245 229.580752 
L 199.290566 246.099229 
L 201.396226 248.484221 
L 203.501887 251.039527 
L 205.607547 251.17676 
L 207.713208 251.520025 
L 209.818868 251.479526 
L 211.924528 251.703036 
L 214.030189 251.744935 
L 216.135849 251.303187 
L 218.241509 251.179005 
L 220.34717 250.139647 
L 222.45283 250.937211 
L 224.558491 250.96848 
L 226.664151 251.446197 
L 230.875472 250.703047 
L 232.981132 250.72826 
L 235.086792 251.276001 
L 239.298113 250.764693 
L 241.403774 251.229509 
L 243.509434 249.979476 
L 245.615094 247.144888 
L 247.720755 241.193297 
L 249.826415 228.493303 
L 251.932075 226.136379 
L 256.143396 241.737145 
L 258.249057 244.459493 
L 264.566038 248.287435 
L 266.671698 249.234972 
L 270.883019 249.20486 
L 272.988679 247.230931 
L 277.2 244.919251 
L 279.30566 246.061577 
L 281.411321 244.550537 
L 283.516981 247.119938 
L 285.622642 248.459193 
L 287.728302 249.130048 
L 291.939623 250.342047 
L 294.045283 250.359479 
L 296.150943 250.509793 
L 298.256604 250.294539 
L 300.362264 249.461977 
L 302.467925 249.293213 
L 304.573585 249.988394 
L 306.679245 249.541073 
L 308.784906 248.711648 
L 310.890566 249.553685 
L 312.996226 251.277024 
L 315.101887 251.374878 
L 317.207547 251.594179 
L 319.313208 251.295371 
L 321.418868 251.58 
L 323.524528 250.619538 
L 325.630189 250.69794 
L 327.735849 248.97368 
L 329.841509 246.741032 
L 331.94717 243.309926 
L 334.05283 237.527988 
L 336.158491 242.830359 
L 338.264151 246.246495 
L 340.369811 248.901849 
L 342.475472 250.172035 
L 344.581132 249.557969 
L 346.686792 250.569638 
L 348.792453 250.888516 
L 350.898113 251.022295 
L 353.003774 250.982407 
L 355.109434 250.419541 
L 357.215094 250.625631 
L 359.320755 249.594584 
L 361.426415 248.337869 
L 363.532075 248.295134 
L 365.637736 249.256336 
L 367.743396 248.464043 
L 369.849057 249.958994 
L 371.954717 250.768522 
L 376.166038 250.060598 
L 378.271698 249.928281 
L 380.377358 248.604813 
L 382.483019 244.947351 
L 384.588679 235.999171 
L 386.69434 208.767382 
L 388.8 121.447772 
L 388.8 121.447772 
" style="fill:none;stroke:#0000ff;stroke-linecap:square;"/>
    <defs>
     <path d="M 0 -3 
L -0.673542 -0.927051 
L -2.85317 -0.927051 
L -1.089814 0.354102 
L -1.763356 2.427051 
L -0 1.145898 
L 1.763356 2.427051 
L 1.089814 0.354102 
L 2.85317 -0.927051 
L 0.673542 -0.927051 
z
" id="mdfca421839" style="stroke:#000000;stroke-linejoin:bevel;stroke-width:0.5;"/>
    </defs>
    <g clip-path="url(#pa75a625027)">
     <use style="fill:#0000ff;stroke:#000000;stroke-linejoin:bevel;stroke-width:0.5;" x="54.0" xlink:href="#mdfca421839" y="66.847160397"/>
     <use style="fill:#0000ff;stroke:#000000;stroke-linejoin:bevel;stroke-width:0.5;" x="56.1056603774" xlink:href="#mdfca421839" y="32.2091807742"/>
     <use style="fill:#0000ff;stroke:#000000;stroke-linejoin:bevel;stroke-width:0.5;" x="58.2113207547" xlink:href="#mdfca421839" y="155.146051954"/>
     <use style="fill:#0000ff;stroke:#000000;stroke-linejoin:bevel;stroke-width:0.5;" x="60.3169811321" xlink:href="#mdfca421839" y="208.544921691"/>
     <use style="fill:#0000ff;stroke:#000000;stroke-linejoin:bevel;stroke-width:0.5;" x="62.4226415094" xlink:href="#mdfca421839" y="229.754463686"/>
     <use style="fill:#0000ff;stroke:#000000;stroke-linejoin:bevel;stroke-width:0.5;" x="64.5283018868" xlink:href="#mdfca421839" y="240.168219207"/>
     <use style="fill:#0000ff;stroke:#000000;stroke-linejoin:bevel;stroke-width:0.5;" x="66.6339622642" xlink:href="#mdfca421839" y="243.334222743"/>
     <use style="fill:#0000ff;stroke:#000000;stroke-linejoin:bevel;stroke-width:0.5;" x="68.7396226415" xlink:href="#mdfca421839" y="245.669438478"/>
     <use style="fill:#0000ff;stroke:#000000;stroke-linejoin:bevel;stroke-width:0.5;" x="70.8452830189" xlink:href="#mdfca421839" y="247.911042484"/>
     <use style="fill:#0000ff;stroke:#000000;stroke-linejoin:bevel;stroke-width:0.5;" x="72.9509433962" xlink:href="#mdfca421839" y="248.884785409"/>
     <use style="fill:#0000ff;stroke:#000000;stroke-linejoin:bevel;stroke-width:0.5;" x="75.0566037736" xlink:href="#mdfca421839" y="250.349101547"/>
     <use style="fill:#0000ff;stroke:#000000;stroke-linejoin:bevel;stroke-width:0.5;" x="77.1622641509" xlink:href="#mdfca421839" y="250.33118557"/>
     <use style="fill:#0000ff;stroke:#000000;stroke-linejoin:bevel;stroke-width:0.5;" x="79.2679245283" xlink:href="#mdfca421839" y="248.582421587"/>
     <use style="fill:#0000ff;stroke:#000000;stroke-linejoin:bevel;stroke-width:0.5;" x="81.3735849057" xlink:href="#mdfca421839" y="247.835987419"/>
     <use style="fill:#0000ff;stroke:#000000;stroke-linejoin:bevel;stroke-width:0.5;" x="83.479245283" xlink:href="#mdfca421839" y="247.913292579"/>
     <use style="fill:#0000ff;stroke:#000000;stroke-linejoin:bevel;stroke-width:0.5;" x="85.5849056604" xlink:href="#mdfca421839" y="248.880062622"/>
     <use style="fill:#0000ff;stroke:#000000;stroke-linejoin:bevel;stroke-width:0.5;" x="87.6905660377" xlink:href="#mdfca421839" y="249.116728805"/>
     <use style="fill:#0000ff;stroke:#000000;stroke-linejoin:bevel;stroke-width:0.5;" x="89.7962264151" xlink:href="#mdfca421839" y="250.602304244"/>
     <use style="fill:#0000ff;stroke:#000000;stroke-linejoin:bevel;stroke-width:0.5;" x="91.9018867925" xlink:href="#mdfca421839" y="250.032249533"/>
     <use style="fill:#0000ff;stroke:#000000;stroke-linejoin:bevel;stroke-width:0.5;" x="94.0075471698" xlink:href="#mdfca421839" y="250.149201452"/>
     <use style="fill:#0000ff;stroke:#000000;stroke-linejoin:bevel;stroke-width:0.5;" x="96.1132075472" xlink:href="#mdfca421839" y="249.911536837"/>
     <use style="fill:#0000ff;stroke:#000000;stroke-linejoin:bevel;stroke-width:0.5;" x="98.2188679245" xlink:href="#mdfca421839" y="249.930115883"/>
     <use style="fill:#0000ff;stroke:#000000;stroke-linejoin:bevel;stroke-width:0.5;" x="100.324528302" xlink:href="#mdfca421839" y="249.173713144"/>
     <use style="fill:#0000ff;stroke:#000000;stroke-linejoin:bevel;stroke-width:0.5;" x="102.430188679" xlink:href="#mdfca421839" y="249.58018849"/>
     <use style="fill:#0000ff;stroke:#000000;stroke-linejoin:bevel;stroke-width:0.5;" x="104.535849057" xlink:href="#mdfca421839" y="248.486949568"/>
     <use style="fill:#0000ff;stroke:#000000;stroke-linejoin:bevel;stroke-width:0.5;" x="106.641509434" xlink:href="#mdfca421839" y="250.467819429"/>
     <use style="fill:#0000ff;stroke:#000000;stroke-linejoin:bevel;stroke-width:0.5;" x="108.747169811" xlink:href="#mdfca421839" y="249.403629167"/>
     <use style="fill:#0000ff;stroke:#000000;stroke-linejoin:bevel;stroke-width:0.5;" x="110.852830189" xlink:href="#mdfca421839" y="243.835156505"/>
     <use style="fill:#0000ff;stroke:#000000;stroke-linejoin:bevel;stroke-width:0.5;" x="112.958490566" xlink:href="#mdfca421839" y="243.513284388"/>
     <use style="fill:#0000ff;stroke:#000000;stroke-linejoin:bevel;stroke-width:0.5;" x="115.064150943" xlink:href="#mdfca421839" y="246.731861183"/>
     <use style="fill:#0000ff;stroke:#000000;stroke-linejoin:bevel;stroke-width:0.5;" x="117.169811321" xlink:href="#mdfca421839" y="249.051818533"/>
     <use style="fill:#0000ff;stroke:#000000;stroke-linejoin:bevel;stroke-width:0.5;" x="119.275471698" xlink:href="#mdfca421839" y="250.394624541"/>
     <use style="fill:#0000ff;stroke:#000000;stroke-linejoin:bevel;stroke-width:0.5;" x="121.381132075" xlink:href="#mdfca421839" y="249.836235967"/>
     <use style="fill:#0000ff;stroke:#000000;stroke-linejoin:bevel;stroke-width:0.5;" x="123.486792453" xlink:href="#mdfca421839" y="250.507617372"/>
     <use style="fill:#0000ff;stroke:#000000;stroke-linejoin:bevel;stroke-width:0.5;" x="125.59245283" xlink:href="#mdfca421839" y="249.846604998"/>
     <use style="fill:#0000ff;stroke:#000000;stroke-linejoin:bevel;stroke-width:0.5;" x="127.698113208" xlink:href="#mdfca421839" y="249.385705005"/>
     <use style="fill:#0000ff;stroke:#000000;stroke-linejoin:bevel;stroke-width:0.5;" x="129.803773585" xlink:href="#mdfca421839" y="247.96313357"/>
     <use style="fill:#0000ff;stroke:#000000;stroke-linejoin:bevel;stroke-width:0.5;" x="131.909433962" xlink:href="#mdfca421839" y="245.322269854"/>
     <use style="fill:#0000ff;stroke:#000000;stroke-linejoin:bevel;stroke-width:0.5;" x="134.01509434" xlink:href="#mdfca421839" y="240.709922828"/>
     <use style="fill:#0000ff;stroke:#000000;stroke-linejoin:bevel;stroke-width:0.5;" x="136.120754717" xlink:href="#mdfca421839" y="239.628567505"/>
     <use style="fill:#0000ff;stroke:#000000;stroke-linejoin:bevel;stroke-width:0.5;" x="138.226415094" xlink:href="#mdfca421839" y="240.253556546"/>
     <use style="fill:#0000ff;stroke:#000000;stroke-linejoin:bevel;stroke-width:0.5;" x="140.332075472" xlink:href="#mdfca421839" y="243.767421969"/>
     <use style="fill:#0000ff;stroke:#000000;stroke-linejoin:bevel;stroke-width:0.5;" x="142.437735849" xlink:href="#mdfca421839" y="246.415405339"/>
     <use style="fill:#0000ff;stroke:#000000;stroke-linejoin:bevel;stroke-width:0.5;" x="144.543396226" xlink:href="#mdfca421839" y="246.651772987"/>
     <use style="fill:#0000ff;stroke:#000000;stroke-linejoin:bevel;stroke-width:0.5;" x="146.649056604" xlink:href="#mdfca421839" y="248.119853726"/>
     <use style="fill:#0000ff;stroke:#000000;stroke-linejoin:bevel;stroke-width:0.5;" x="148.754716981" xlink:href="#mdfca421839" y="250.254389294"/>
     <use style="fill:#0000ff;stroke:#000000;stroke-linejoin:bevel;stroke-width:0.5;" x="150.860377358" xlink:href="#mdfca421839" y="250.356607054"/>
     <use style="fill:#0000ff;stroke:#000000;stroke-linejoin:bevel;stroke-width:0.5;" x="152.966037736" xlink:href="#mdfca421839" y="250.51281213"/>
     <use style="fill:#0000ff;stroke:#000000;stroke-linejoin:bevel;stroke-width:0.5;" x="155.071698113" xlink:href="#mdfca421839" y="250.778339754"/>
     <use style="fill:#0000ff;stroke:#000000;stroke-linejoin:bevel;stroke-width:0.5;" x="157.177358491" xlink:href="#mdfca421839" y="250.726155518"/>
     <use style="fill:#0000ff;stroke:#000000;stroke-linejoin:bevel;stroke-width:0.5;" x="159.283018868" xlink:href="#mdfca421839" y="248.520107829"/>
     <use style="fill:#0000ff;stroke:#000000;stroke-linejoin:bevel;stroke-width:0.5;" x="161.388679245" xlink:href="#mdfca421839" y="248.920050778"/>
     <use style="fill:#0000ff;stroke:#000000;stroke-linejoin:bevel;stroke-width:0.5;" x="163.494339623" xlink:href="#mdfca421839" y="248.083416256"/>
     <use style="fill:#0000ff;stroke:#000000;stroke-linejoin:bevel;stroke-width:0.5;" x="165.6" xlink:href="#mdfca421839" y="247.90173752"/>
     <use style="fill:#0000ff;stroke:#000000;stroke-linejoin:bevel;stroke-width:0.5;" x="167.705660377" xlink:href="#mdfca421839" y="248.201019177"/>
     <use style="fill:#0000ff;stroke:#000000;stroke-linejoin:bevel;stroke-width:0.5;" x="169.811320755" xlink:href="#mdfca421839" y="249.0066886"/>
     <use style="fill:#0000ff;stroke:#000000;stroke-linejoin:bevel;stroke-width:0.5;" x="171.916981132" xlink:href="#mdfca421839" y="249.937572314"/>
     <use style="fill:#0000ff;stroke:#000000;stroke-linejoin:bevel;stroke-width:0.5;" x="174.022641509" xlink:href="#mdfca421839" y="249.090789433"/>
     <use style="fill:#0000ff;stroke:#000000;stroke-linejoin:bevel;stroke-width:0.5;" x="176.128301887" xlink:href="#mdfca421839" y="249.500774043"/>
     <use style="fill:#0000ff;stroke:#000000;stroke-linejoin:bevel;stroke-width:0.5;" x="178.233962264" xlink:href="#mdfca421839" y="249.521364884"/>
     <use style="fill:#0000ff;stroke:#000000;stroke-linejoin:bevel;stroke-width:0.5;" x="180.339622642" xlink:href="#mdfca421839" y="250.530322532"/>
     <use style="fill:#0000ff;stroke:#000000;stroke-linejoin:bevel;stroke-width:0.5;" x="182.445283019" xlink:href="#mdfca421839" y="250.010985374"/>
     <use style="fill:#0000ff;stroke:#000000;stroke-linejoin:bevel;stroke-width:0.5;" x="184.550943396" xlink:href="#mdfca421839" y="249.789430179"/>
     <use style="fill:#0000ff;stroke:#000000;stroke-linejoin:bevel;stroke-width:0.5;" x="186.656603774" xlink:href="#mdfca421839" y="248.22118224"/>
     <use style="fill:#0000ff;stroke:#000000;stroke-linejoin:bevel;stroke-width:0.5;" x="188.762264151" xlink:href="#mdfca421839" y="246.040561444"/>
     <use style="fill:#0000ff;stroke:#000000;stroke-linejoin:bevel;stroke-width:0.5;" x="190.867924528" xlink:href="#mdfca421839" y="235.88085067"/>
     <use style="fill:#0000ff;stroke:#000000;stroke-linejoin:bevel;stroke-width:0.5;" x="192.973584906" xlink:href="#mdfca421839" y="223.195999823"/>
     <use style="fill:#0000ff;stroke:#000000;stroke-linejoin:bevel;stroke-width:0.5;" x="195.079245283" xlink:href="#mdfca421839" y="229.580752499"/>
     <use style="fill:#0000ff;stroke:#000000;stroke-linejoin:bevel;stroke-width:0.5;" x="197.18490566" xlink:href="#mdfca421839" y="237.993981846"/>
     <use style="fill:#0000ff;stroke:#000000;stroke-linejoin:bevel;stroke-width:0.5;" x="199.290566038" xlink:href="#mdfca421839" y="246.099228715"/>
     <use style="fill:#0000ff;stroke:#000000;stroke-linejoin:bevel;stroke-width:0.5;" x="201.396226415" xlink:href="#mdfca421839" y="248.484220696"/>
     <use style="fill:#0000ff;stroke:#000000;stroke-linejoin:bevel;stroke-width:0.5;" x="203.501886792" xlink:href="#mdfca421839" y="251.039526667"/>
     <use style="fill:#0000ff;stroke:#000000;stroke-linejoin:bevel;stroke-width:0.5;" x="205.60754717" xlink:href="#mdfca421839" y="251.176760443"/>
     <use style="fill:#0000ff;stroke:#000000;stroke-linejoin:bevel;stroke-width:0.5;" x="207.713207547" xlink:href="#mdfca421839" y="251.520024681"/>
     <use style="fill:#0000ff;stroke:#000000;stroke-linejoin:bevel;stroke-width:0.5;" x="209.818867925" xlink:href="#mdfca421839" y="251.479526316"/>
     <use style="fill:#0000ff;stroke:#000000;stroke-linejoin:bevel;stroke-width:0.5;" x="211.924528302" xlink:href="#mdfca421839" y="251.703035649"/>
     <use style="fill:#0000ff;stroke:#000000;stroke-linejoin:bevel;stroke-width:0.5;" x="214.030188679" xlink:href="#mdfca421839" y="251.744935494"/>
     <use style="fill:#0000ff;stroke:#000000;stroke-linejoin:bevel;stroke-width:0.5;" x="216.135849057" xlink:href="#mdfca421839" y="251.30318716"/>
     <use style="fill:#0000ff;stroke:#000000;stroke-linejoin:bevel;stroke-width:0.5;" x="218.241509434" xlink:href="#mdfca421839" y="251.179004875"/>
     <use style="fill:#0000ff;stroke:#000000;stroke-linejoin:bevel;stroke-width:0.5;" x="220.347169811" xlink:href="#mdfca421839" y="250.139647078"/>
     <use style="fill:#0000ff;stroke:#000000;stroke-linejoin:bevel;stroke-width:0.5;" x="222.452830189" xlink:href="#mdfca421839" y="250.937211089"/>
     <use style="fill:#0000ff;stroke:#000000;stroke-linejoin:bevel;stroke-width:0.5;" x="224.558490566" xlink:href="#mdfca421839" y="250.96848013"/>
     <use style="fill:#0000ff;stroke:#000000;stroke-linejoin:bevel;stroke-width:0.5;" x="226.664150943" xlink:href="#mdfca421839" y="251.446197022"/>
     <use style="fill:#0000ff;stroke:#000000;stroke-linejoin:bevel;stroke-width:0.5;" x="228.769811321" xlink:href="#mdfca421839" y="251.124006528"/>
     <use style="fill:#0000ff;stroke:#000000;stroke-linejoin:bevel;stroke-width:0.5;" x="230.875471698" xlink:href="#mdfca421839" y="250.703047339"/>
     <use style="fill:#0000ff;stroke:#000000;stroke-linejoin:bevel;stroke-width:0.5;" x="232.981132075" xlink:href="#mdfca421839" y="250.728259818"/>
     <use style="fill:#0000ff;stroke:#000000;stroke-linejoin:bevel;stroke-width:0.5;" x="235.086792453" xlink:href="#mdfca421839" y="251.276001317"/>
     <use style="fill:#0000ff;stroke:#000000;stroke-linejoin:bevel;stroke-width:0.5;" x="237.19245283" xlink:href="#mdfca421839" y="251.032156539"/>
     <use style="fill:#0000ff;stroke:#000000;stroke-linejoin:bevel;stroke-width:0.5;" x="239.298113208" xlink:href="#mdfca421839" y="250.764692902"/>
     <use style="fill:#0000ff;stroke:#000000;stroke-linejoin:bevel;stroke-width:0.5;" x="241.403773585" xlink:href="#mdfca421839" y="251.229509224"/>
     <use style="fill:#0000ff;stroke:#000000;stroke-linejoin:bevel;stroke-width:0.5;" x="243.509433962" xlink:href="#mdfca421839" y="249.979476482"/>
     <use style="fill:#0000ff;stroke:#000000;stroke-linejoin:bevel;stroke-width:0.5;" x="245.61509434" xlink:href="#mdfca421839" y="247.144887515"/>
     <use style="fill:#0000ff;stroke:#000000;stroke-linejoin:bevel;stroke-width:0.5;" x="247.720754717" xlink:href="#mdfca421839" y="241.193296591"/>
     <use style="fill:#0000ff;stroke:#000000;stroke-linejoin:bevel;stroke-width:0.5;" x="249.826415094" xlink:href="#mdfca421839" y="228.49330259"/>
     <use style="fill:#0000ff;stroke:#000000;stroke-linejoin:bevel;stroke-width:0.5;" x="251.932075472" xlink:href="#mdfca421839" y="226.136379085"/>
     <use style="fill:#0000ff;stroke:#000000;stroke-linejoin:bevel;stroke-width:0.5;" x="254.037735849" xlink:href="#mdfca421839" y="233.888275572"/>
     <use style="fill:#0000ff;stroke:#000000;stroke-linejoin:bevel;stroke-width:0.5;" x="256.143396226" xlink:href="#mdfca421839" y="241.737144717"/>
     <use style="fill:#0000ff;stroke:#000000;stroke-linejoin:bevel;stroke-width:0.5;" x="258.249056604" xlink:href="#mdfca421839" y="244.459492685"/>
     <use style="fill:#0000ff;stroke:#000000;stroke-linejoin:bevel;stroke-width:0.5;" x="260.354716981" xlink:href="#mdfca421839" y="245.767629512"/>
     <use style="fill:#0000ff;stroke:#000000;stroke-linejoin:bevel;stroke-width:0.5;" x="262.460377358" xlink:href="#mdfca421839" y="247.084055474"/>
     <use style="fill:#0000ff;stroke:#000000;stroke-linejoin:bevel;stroke-width:0.5;" x="264.566037736" xlink:href="#mdfca421839" y="248.287434521"/>
     <use style="fill:#0000ff;stroke:#000000;stroke-linejoin:bevel;stroke-width:0.5;" x="266.671698113" xlink:href="#mdfca421839" y="249.234972235"/>
     <use style="fill:#0000ff;stroke:#000000;stroke-linejoin:bevel;stroke-width:0.5;" x="268.777358491" xlink:href="#mdfca421839" y="249.220239709"/>
     <use style="fill:#0000ff;stroke:#000000;stroke-linejoin:bevel;stroke-width:0.5;" x="270.883018868" xlink:href="#mdfca421839" y="249.204860385"/>
     <use style="fill:#0000ff;stroke:#000000;stroke-linejoin:bevel;stroke-width:0.5;" x="272.988679245" xlink:href="#mdfca421839" y="247.230931038"/>
     <use style="fill:#0000ff;stroke:#000000;stroke-linejoin:bevel;stroke-width:0.5;" x="275.094339623" xlink:href="#mdfca421839" y="246.101290915"/>
     <use style="fill:#0000ff;stroke:#000000;stroke-linejoin:bevel;stroke-width:0.5;" x="277.2" xlink:href="#mdfca421839" y="244.919250717"/>
     <use style="fill:#0000ff;stroke:#000000;stroke-linejoin:bevel;stroke-width:0.5;" x="279.305660377" xlink:href="#mdfca421839" y="246.061577436"/>
     <use style="fill:#0000ff;stroke:#000000;stroke-linejoin:bevel;stroke-width:0.5;" x="281.411320755" xlink:href="#mdfca421839" y="244.550537089"/>
     <use style="fill:#0000ff;stroke:#000000;stroke-linejoin:bevel;stroke-width:0.5;" x="283.516981132" xlink:href="#mdfca421839" y="247.11993753"/>
     <use style="fill:#0000ff;stroke:#000000;stroke-linejoin:bevel;stroke-width:0.5;" x="285.622641509" xlink:href="#mdfca421839" y="248.459192672"/>
     <use style="fill:#0000ff;stroke:#000000;stroke-linejoin:bevel;stroke-width:0.5;" x="287.728301887" xlink:href="#mdfca421839" y="249.130048153"/>
     <use style="fill:#0000ff;stroke:#000000;stroke-linejoin:bevel;stroke-width:0.5;" x="289.833962264" xlink:href="#mdfca421839" y="249.680379003"/>
     <use style="fill:#0000ff;stroke:#000000;stroke-linejoin:bevel;stroke-width:0.5;" x="291.939622642" xlink:href="#mdfca421839" y="250.342047178"/>
     <use style="fill:#0000ff;stroke:#000000;stroke-linejoin:bevel;stroke-width:0.5;" x="294.045283019" xlink:href="#mdfca421839" y="250.359478867"/>
     <use style="fill:#0000ff;stroke:#000000;stroke-linejoin:bevel;stroke-width:0.5;" x="296.150943396" xlink:href="#mdfca421839" y="250.509792684"/>
     <use style="fill:#0000ff;stroke:#000000;stroke-linejoin:bevel;stroke-width:0.5;" x="298.256603774" xlink:href="#mdfca421839" y="250.29453912"/>
     <use style="fill:#0000ff;stroke:#000000;stroke-linejoin:bevel;stroke-width:0.5;" x="300.362264151" xlink:href="#mdfca421839" y="249.461976734"/>
     <use style="fill:#0000ff;stroke:#000000;stroke-linejoin:bevel;stroke-width:0.5;" x="302.467924528" xlink:href="#mdfca421839" y="249.293212676"/>
     <use style="fill:#0000ff;stroke:#000000;stroke-linejoin:bevel;stroke-width:0.5;" x="304.573584906" xlink:href="#mdfca421839" y="249.988394156"/>
     <use style="fill:#0000ff;stroke:#000000;stroke-linejoin:bevel;stroke-width:0.5;" x="306.679245283" xlink:href="#mdfca421839" y="249.541073023"/>
     <use style="fill:#0000ff;stroke:#000000;stroke-linejoin:bevel;stroke-width:0.5;" x="308.78490566" xlink:href="#mdfca421839" y="248.711647828"/>
     <use style="fill:#0000ff;stroke:#000000;stroke-linejoin:bevel;stroke-width:0.5;" x="310.890566038" xlink:href="#mdfca421839" y="249.553684741"/>
     <use style="fill:#0000ff;stroke:#000000;stroke-linejoin:bevel;stroke-width:0.5;" x="312.996226415" xlink:href="#mdfca421839" y="251.277024032"/>
     <use style="fill:#0000ff;stroke:#000000;stroke-linejoin:bevel;stroke-width:0.5;" x="315.101886792" xlink:href="#mdfca421839" y="251.374878047"/>
     <use style="fill:#0000ff;stroke:#000000;stroke-linejoin:bevel;stroke-width:0.5;" x="317.20754717" xlink:href="#mdfca421839" y="251.594179178"/>
     <use style="fill:#0000ff;stroke:#000000;stroke-linejoin:bevel;stroke-width:0.5;" x="319.313207547" xlink:href="#mdfca421839" y="251.295371189"/>
     <use style="fill:#0000ff;stroke:#000000;stroke-linejoin:bevel;stroke-width:0.5;" x="321.418867925" xlink:href="#mdfca421839" y="251.580000268"/>
     <use style="fill:#0000ff;stroke:#000000;stroke-linejoin:bevel;stroke-width:0.5;" x="323.524528302" xlink:href="#mdfca421839" y="250.619537726"/>
     <use style="fill:#0000ff;stroke:#000000;stroke-linejoin:bevel;stroke-width:0.5;" x="325.630188679" xlink:href="#mdfca421839" y="250.697940348"/>
     <use style="fill:#0000ff;stroke:#000000;stroke-linejoin:bevel;stroke-width:0.5;" x="327.735849057" xlink:href="#mdfca421839" y="248.973680396"/>
     <use style="fill:#0000ff;stroke:#000000;stroke-linejoin:bevel;stroke-width:0.5;" x="329.841509434" xlink:href="#mdfca421839" y="246.741031987"/>
     <use style="fill:#0000ff;stroke:#000000;stroke-linejoin:bevel;stroke-width:0.5;" x="331.947169811" xlink:href="#mdfca421839" y="243.309925998"/>
     <use style="fill:#0000ff;stroke:#000000;stroke-linejoin:bevel;stroke-width:0.5;" x="334.052830189" xlink:href="#mdfca421839" y="237.527988024"/>
     <use style="fill:#0000ff;stroke:#000000;stroke-linejoin:bevel;stroke-width:0.5;" x="336.158490566" xlink:href="#mdfca421839" y="242.830359197"/>
     <use style="fill:#0000ff;stroke:#000000;stroke-linejoin:bevel;stroke-width:0.5;" x="338.264150943" xlink:href="#mdfca421839" y="246.246494605"/>
     <use style="fill:#0000ff;stroke:#000000;stroke-linejoin:bevel;stroke-width:0.5;" x="340.369811321" xlink:href="#mdfca421839" y="248.901848961"/>
     <use style="fill:#0000ff;stroke:#000000;stroke-linejoin:bevel;stroke-width:0.5;" x="342.475471698" xlink:href="#mdfca421839" y="250.172035192"/>
     <use style="fill:#0000ff;stroke:#000000;stroke-linejoin:bevel;stroke-width:0.5;" x="344.581132075" xlink:href="#mdfca421839" y="249.557969016"/>
     <use style="fill:#0000ff;stroke:#000000;stroke-linejoin:bevel;stroke-width:0.5;" x="346.686792453" xlink:href="#mdfca421839" y="250.569638265"/>
     <use style="fill:#0000ff;stroke:#000000;stroke-linejoin:bevel;stroke-width:0.5;" x="348.79245283" xlink:href="#mdfca421839" y="250.888516478"/>
     <use style="fill:#0000ff;stroke:#000000;stroke-linejoin:bevel;stroke-width:0.5;" x="350.898113208" xlink:href="#mdfca421839" y="251.022294673"/>
     <use style="fill:#0000ff;stroke:#000000;stroke-linejoin:bevel;stroke-width:0.5;" x="353.003773585" xlink:href="#mdfca421839" y="250.982406678"/>
     <use style="fill:#0000ff;stroke:#000000;stroke-linejoin:bevel;stroke-width:0.5;" x="355.109433962" xlink:href="#mdfca421839" y="250.419541338"/>
     <use style="fill:#0000ff;stroke:#000000;stroke-linejoin:bevel;stroke-width:0.5;" x="357.21509434" xlink:href="#mdfca421839" y="250.625630696"/>
     <use style="fill:#0000ff;stroke:#000000;stroke-linejoin:bevel;stroke-width:0.5;" x="359.320754717" xlink:href="#mdfca421839" y="249.594584081"/>
     <use style="fill:#0000ff;stroke:#000000;stroke-linejoin:bevel;stroke-width:0.5;" x="361.426415094" xlink:href="#mdfca421839" y="248.33786858"/>
     <use style="fill:#0000ff;stroke:#000000;stroke-linejoin:bevel;stroke-width:0.5;" x="363.532075472" xlink:href="#mdfca421839" y="248.295134484"/>
     <use style="fill:#0000ff;stroke:#000000;stroke-linejoin:bevel;stroke-width:0.5;" x="365.637735849" xlink:href="#mdfca421839" y="249.25633557"/>
     <use style="fill:#0000ff;stroke:#000000;stroke-linejoin:bevel;stroke-width:0.5;" x="367.743396226" xlink:href="#mdfca421839" y="248.464042988"/>
     <use style="fill:#0000ff;stroke:#000000;stroke-linejoin:bevel;stroke-width:0.5;" x="369.849056604" xlink:href="#mdfca421839" y="249.958994388"/>
     <use style="fill:#0000ff;stroke:#000000;stroke-linejoin:bevel;stroke-width:0.5;" x="371.954716981" xlink:href="#mdfca421839" y="250.768521524"/>
     <use style="fill:#0000ff;stroke:#000000;stroke-linejoin:bevel;stroke-width:0.5;" x="374.060377358" xlink:href="#mdfca421839" y="250.435079623"/>
     <use style="fill:#0000ff;stroke:#000000;stroke-linejoin:bevel;stroke-width:0.5;" x="376.166037736" xlink:href="#mdfca421839" y="250.060598243"/>
     <use style="fill:#0000ff;stroke:#000000;stroke-linejoin:bevel;stroke-width:0.5;" x="378.271698113" xlink:href="#mdfca421839" y="249.928281313"/>
     <use style="fill:#0000ff;stroke:#000000;stroke-linejoin:bevel;stroke-width:0.5;" x="380.377358491" xlink:href="#mdfca421839" y="248.604813096"/>
     <use style="fill:#0000ff;stroke:#000000;stroke-linejoin:bevel;stroke-width:0.5;" x="382.483018868" xlink:href="#mdfca421839" y="244.947351334"/>
     <use style="fill:#0000ff;stroke:#000000;stroke-linejoin:bevel;stroke-width:0.5;" x="384.588679245" xlink:href="#mdfca421839" y="235.999171247"/>
     <use style="fill:#0000ff;stroke:#000000;stroke-linejoin:bevel;stroke-width:0.5;" x="386.694339623" xlink:href="#mdfca421839" y="208.767382419"/>
     <use style="fill:#0000ff;stroke:#000000;stroke-linejoin:bevel;stroke-width:0.5;" x="388.8" xlink:href="#mdfca421839" y="121.447771801"/>
    </g>
   </g>
   <g id="patch_3">
    <path d="M 54 28.8 
L 388.8 28.8 
" style="fill:none;stroke:#000000;stroke-linecap:square;stroke-linejoin:miter;"/>
   </g>
   <g id="patch_4">
    <path d="M 388.8 252 
L 388.8 28.8 
" style="fill:none;stroke:#000000;stroke-linecap:square;stroke-linejoin:miter;"/>
   </g>
   <g id="patch_5">
    <path d="M 54 252 
L 388.8 252 
" style="fill:none;stroke:#000000;stroke-linecap:square;stroke-linejoin:miter;"/>
   </g>
   <g id="patch_6">
    <path d="M 54 252 
L 54 28.8 
" style="fill:none;stroke:#000000;stroke-linecap:square;stroke-linejoin:miter;"/>
   </g>
   <g id="matplotlib.axis_1">
    <g id="xtick_1">
     <g id="line2d_2">
      <defs>
       <path d="M 0 0 
L 0 -4 
" id="m7ae46ae175" style="stroke:#000000;stroke-width:0.5;"/>
      </defs>
      <g>
       <use style="stroke:#000000;stroke-width:0.5;" x="54.0" xlink:href="#m7ae46ae175" y="252.0"/>
      </g>
     </g>
     <g id="line2d_3">
      <defs>
       <path d="M 0 0 
L 0 4 
" id="m4b2088dcf5" style="stroke:#000000;stroke-width:0.5;"/>
      </defs>
      <g>
       <use style="stroke:#000000;stroke-width:0.5;" x="54.0" xlink:href="#m4b2088dcf5" y="28.8"/>
      </g>
     </g>
     <g id="text_1">
      <!-- 0 -->
      <defs>
       <path d="M 31.78125 66.40625 
Q 24.171875 66.40625 20.328125 58.90625 
Q 16.5 51.421875 16.5 36.375 
Q 16.5 21.390625 20.328125 13.890625 
Q 24.171875 6.390625 31.78125 6.390625 
Q 39.453125 6.390625 43.28125 13.890625 
Q 47.125 21.390625 47.125 36.375 
Q 47.125 51.421875 43.28125 58.90625 
Q 39.453125 66.40625 31.78125 66.40625 
M 31.78125 74.21875 
Q 44.046875 74.21875 50.515625 64.515625 
Q 56.984375 54.828125 56.984375 36.375 
Q 56.984375 17.96875 50.515625 8.265625 
Q 44.046875 -1.421875 31.78125 -1.421875 
Q 19.53125 -1.421875 13.0625 8.265625 
Q 6.59375 17.96875 6.59375 36.375 
Q 6.59375 54.828125 13.0625 64.515625 
Q 19.53125 74.21875 31.78125 74.21875 
" id="BitstreamVeraSans-Roman-30"/>
      </defs>
      <g transform="translate(50.81875 263.5984375)scale(0.1 -0.1)">
       <use xlink:href="#BitstreamVeraSans-Roman-30"/>
      </g>
     </g>
    </g>
    <g id="xtick_2">
     <g id="line2d_4">
      <g>
       <use style="stroke:#000000;stroke-width:0.5;" x="110.150943396" xlink:href="#m7ae46ae175" y="252.0"/>
      </g>
     </g>
     <g id="line2d_5">
      <g>
       <use style="stroke:#000000;stroke-width:0.5;" x="110.150943396" xlink:href="#m4b2088dcf5" y="28.8"/>
      </g>
     </g>
     <g id="text_2">
      <!-- 200 -->
      <defs>
       <path d="M 19.1875 8.296875 
L 53.609375 8.296875 
L 53.609375 0 
L 7.328125 0 
L 7.328125 8.296875 
Q 12.9375 14.109375 22.625 23.890625 
Q 32.328125 33.6875 34.8125 36.53125 
Q 39.546875 41.84375 41.421875 45.53125 
Q 43.3125 49.21875 43.3125 52.78125 
Q 43.3125 58.59375 39.234375 62.25 
Q 35.15625 65.921875 28.609375 65.921875 
Q 23.96875 65.921875 18.8125 64.3125 
Q 13.671875 62.703125 7.8125 59.421875 
L 7.8125 69.390625 
Q 13.765625 71.78125 18.9375 73 
Q 24.125 74.21875 28.421875 74.21875 
Q 39.75 74.21875 46.484375 68.546875 
Q 53.21875 62.890625 53.21875 53.421875 
Q 53.21875 48.921875 51.53125 44.890625 
Q 49.859375 40.875 45.40625 35.40625 
Q 44.1875 33.984375 37.640625 27.21875 
Q 31.109375 20.453125 19.1875 8.296875 
" id="BitstreamVeraSans-Roman-32"/>
      </defs>
      <g transform="translate(100.607193396 263.5984375)scale(0.1 -0.1)">
       <use xlink:href="#BitstreamVeraSans-Roman-32"/>
       <use x="63.623046875" xlink:href="#BitstreamVeraSans-Roman-30"/>
       <use x="127.24609375" xlink:href="#BitstreamVeraSans-Roman-30"/>
      </g>
     </g>
    </g>
    <g id="xtick_3">
     <g id="line2d_6">
      <g>
       <use style="stroke:#000000;stroke-width:0.5;" x="166.301886792" xlink:href="#m7ae46ae175" y="252.0"/>
      </g>
     </g>
     <g id="line2d_7">
      <g>
       <use style="stroke:#000000;stroke-width:0.5;" x="166.301886792" xlink:href="#m4b2088dcf5" y="28.8"/>
      </g>
     </g>
     <g id="text_3">
      <!-- 400 -->
      <defs>
       <path d="M 37.796875 64.3125 
L 12.890625 25.390625 
L 37.796875 25.390625 
z
M 35.203125 72.90625 
L 47.609375 72.90625 
L 47.609375 25.390625 
L 58.015625 25.390625 
L 58.015625 17.1875 
L 47.609375 17.1875 
L 47.609375 0 
L 37.796875 0 
L 37.796875 17.1875 
L 4.890625 17.1875 
L 4.890625 26.703125 
z
" id="BitstreamVeraSans-Roman-34"/>
      </defs>
      <g transform="translate(156.758136792 263.5984375)scale(0.1 -0.1)">
       <use xlink:href="#BitstreamVeraSans-Roman-34"/>
       <use x="63.623046875" xlink:href="#BitstreamVeraSans-Roman-30"/>
       <use x="127.24609375" xlink:href="#BitstreamVeraSans-Roman-30"/>
      </g>
     </g>
    </g>
    <g id="xtick_4">
     <g id="line2d_8">
      <g>
       <use style="stroke:#000000;stroke-width:0.5;" x="222.452830189" xlink:href="#m7ae46ae175" y="252.0"/>
      </g>
     </g>
     <g id="line2d_9">
      <g>
       <use style="stroke:#000000;stroke-width:0.5;" x="222.452830189" xlink:href="#m4b2088dcf5" y="28.8"/>
      </g>
     </g>
     <g id="text_4">
      <!-- 600 -->
      <defs>
       <path d="M 33.015625 40.375 
Q 26.375 40.375 22.484375 35.828125 
Q 18.609375 31.296875 18.609375 23.390625 
Q 18.609375 15.53125 22.484375 10.953125 
Q 26.375 6.390625 33.015625 6.390625 
Q 39.65625 6.390625 43.53125 10.953125 
Q 47.40625 15.53125 47.40625 23.390625 
Q 47.40625 31.296875 43.53125 35.828125 
Q 39.65625 40.375 33.015625 40.375 
M 52.59375 71.296875 
L 52.59375 62.3125 
Q 48.875 64.0625 45.09375 64.984375 
Q 41.3125 65.921875 37.59375 65.921875 
Q 27.828125 65.921875 22.671875 59.328125 
Q 17.53125 52.734375 16.796875 39.40625 
Q 19.671875 43.65625 24.015625 45.921875 
Q 28.375 48.1875 33.59375 48.1875 
Q 44.578125 48.1875 50.953125 41.515625 
Q 57.328125 34.859375 57.328125 23.390625 
Q 57.328125 12.15625 50.6875 5.359375 
Q 44.046875 -1.421875 33.015625 -1.421875 
Q 20.359375 -1.421875 13.671875 8.265625 
Q 6.984375 17.96875 6.984375 36.375 
Q 6.984375 53.65625 15.1875 63.9375 
Q 23.390625 74.21875 37.203125 74.21875 
Q 40.921875 74.21875 44.703125 73.484375 
Q 48.484375 72.75 52.59375 71.296875 
" id="BitstreamVeraSans-Roman-36"/>
      </defs>
      <g transform="translate(212.909080189 263.5984375)scale(0.1 -0.1)">
       <use xlink:href="#BitstreamVeraSans-Roman-36"/>
       <use x="63.623046875" xlink:href="#BitstreamVeraSans-Roman-30"/>
       <use x="127.24609375" xlink:href="#BitstreamVeraSans-Roman-30"/>
      </g>
     </g>
    </g>
    <g id="xtick_5">
     <g id="line2d_10">
      <g>
       <use style="stroke:#000000;stroke-width:0.5;" x="278.603773585" xlink:href="#m7ae46ae175" y="252.0"/>
      </g>
     </g>
     <g id="line2d_11">
      <g>
       <use style="stroke:#000000;stroke-width:0.5;" x="278.603773585" xlink:href="#m4b2088dcf5" y="28.8"/>
      </g>
     </g>
     <g id="text_5">
      <!-- 800 -->
      <defs>
       <path d="M 31.78125 34.625 
Q 24.75 34.625 20.71875 30.859375 
Q 16.703125 27.09375 16.703125 20.515625 
Q 16.703125 13.921875 20.71875 10.15625 
Q 24.75 6.390625 31.78125 6.390625 
Q 38.8125 6.390625 42.859375 10.171875 
Q 46.921875 13.96875 46.921875 20.515625 
Q 46.921875 27.09375 42.890625 30.859375 
Q 38.875 34.625 31.78125 34.625 
M 21.921875 38.8125 
Q 15.578125 40.375 12.03125 44.71875 
Q 8.5 49.078125 8.5 55.328125 
Q 8.5 64.0625 14.71875 69.140625 
Q 20.953125 74.21875 31.78125 74.21875 
Q 42.671875 74.21875 48.875 69.140625 
Q 55.078125 64.0625 55.078125 55.328125 
Q 55.078125 49.078125 51.53125 44.71875 
Q 48 40.375 41.703125 38.8125 
Q 48.828125 37.15625 52.796875 32.3125 
Q 56.78125 27.484375 56.78125 20.515625 
Q 56.78125 9.90625 50.3125 4.234375 
Q 43.84375 -1.421875 31.78125 -1.421875 
Q 19.734375 -1.421875 13.25 4.234375 
Q 6.78125 9.90625 6.78125 20.515625 
Q 6.78125 27.484375 10.78125 32.3125 
Q 14.796875 37.15625 21.921875 38.8125 
M 18.3125 54.390625 
Q 18.3125 48.734375 21.84375 45.5625 
Q 25.390625 42.390625 31.78125 42.390625 
Q 38.140625 42.390625 41.71875 45.5625 
Q 45.3125 48.734375 45.3125 54.390625 
Q 45.3125 60.0625 41.71875 63.234375 
Q 38.140625 66.40625 31.78125 66.40625 
Q 25.390625 66.40625 21.84375 63.234375 
Q 18.3125 60.0625 18.3125 54.390625 
" id="BitstreamVeraSans-Roman-38"/>
      </defs>
      <g transform="translate(269.060023585 263.5984375)scale(0.1 -0.1)">
       <use xlink:href="#BitstreamVeraSans-Roman-38"/>
       <use x="63.623046875" xlink:href="#BitstreamVeraSans-Roman-30"/>
       <use x="127.24609375" xlink:href="#BitstreamVeraSans-Roman-30"/>
      </g>
     </g>
    </g>
    <g id="xtick_6">
     <g id="line2d_12">
      <g>
       <use style="stroke:#000000;stroke-width:0.5;" x="334.754716981" xlink:href="#m7ae46ae175" y="252.0"/>
      </g>
     </g>
     <g id="line2d_13">
      <g>
       <use style="stroke:#000000;stroke-width:0.5;" x="334.754716981" xlink:href="#m4b2088dcf5" y="28.8"/>
      </g>
     </g>
     <g id="text_6">
      <!-- 1000 -->
      <defs>
       <path d="M 12.40625 8.296875 
L 28.515625 8.296875 
L 28.515625 63.921875 
L 10.984375 60.40625 
L 10.984375 69.390625 
L 28.421875 72.90625 
L 38.28125 72.90625 
L 38.28125 8.296875 
L 54.390625 8.296875 
L 54.390625 0 
L 12.40625 0 
z
" id="BitstreamVeraSans-Roman-31"/>
      </defs>
      <g transform="translate(322.029716981 263.5984375)scale(0.1 -0.1)">
       <use xlink:href="#BitstreamVeraSans-Roman-31"/>
       <use x="63.623046875" xlink:href="#BitstreamVeraSans-Roman-30"/>
       <use x="127.24609375" xlink:href="#BitstreamVeraSans-Roman-30"/>
       <use x="190.869140625" xlink:href="#BitstreamVeraSans-Roman-30"/>
      </g>
     </g>
    </g>
    <g id="text_7">
     <!-- Octave-wrapped distance between -->
     <defs>
      <path d="M 39.40625 66.21875 
Q 28.65625 66.21875 22.328125 58.203125 
Q 16.015625 50.203125 16.015625 36.375 
Q 16.015625 22.609375 22.328125 14.59375 
Q 28.65625 6.59375 39.40625 6.59375 
Q 50.140625 6.59375 56.421875 14.59375 
Q 62.703125 22.609375 62.703125 36.375 
Q 62.703125 50.203125 56.421875 58.203125 
Q 50.140625 66.21875 39.40625 66.21875 
M 39.40625 74.21875 
Q 54.734375 74.21875 63.90625 63.9375 
Q 73.09375 53.65625 73.09375 36.375 
Q 73.09375 19.140625 63.90625 8.859375 
Q 54.734375 -1.421875 39.40625 -1.421875 
Q 24.03125 -1.421875 14.8125 8.828125 
Q 5.609375 19.09375 5.609375 36.375 
Q 5.609375 53.65625 14.8125 63.9375 
Q 24.03125 74.21875 39.40625 74.21875 
" id="BitstreamVeraSans-Roman-4f"/>
      <path d="M 18.109375 8.203125 
L 18.109375 -20.796875 
L 9.078125 -20.796875 
L 9.078125 54.6875 
L 18.109375 54.6875 
L 18.109375 46.390625 
Q 20.953125 51.265625 25.265625 53.625 
Q 29.59375 56 35.59375 56 
Q 45.5625 56 51.78125 48.09375 
Q 58.015625 40.1875 58.015625 27.296875 
Q 58.015625 14.40625 51.78125 6.484375 
Q 45.5625 -1.421875 35.59375 -1.421875 
Q 29.59375 -1.421875 25.265625 0.953125 
Q 20.953125 3.328125 18.109375 8.203125 
M 48.6875 27.296875 
Q 48.6875 37.203125 44.609375 42.84375 
Q 40.53125 48.484375 33.40625 48.484375 
Q 26.265625 48.484375 22.1875 42.84375 
Q 18.109375 37.203125 18.109375 27.296875 
Q 18.109375 17.390625 22.1875 11.75 
Q 26.265625 6.109375 33.40625 6.109375 
Q 40.53125 6.109375 44.609375 11.75 
Q 48.6875 17.390625 48.6875 27.296875 
" id="BitstreamVeraSans-Roman-70"/>
      <path id="BitstreamVeraSans-Roman-20"/>
      <path d="M 54.890625 33.015625 
L 54.890625 0 
L 45.90625 0 
L 45.90625 32.71875 
Q 45.90625 40.484375 42.875 44.328125 
Q 39.84375 48.1875 33.796875 48.1875 
Q 26.515625 48.1875 22.3125 43.546875 
Q 18.109375 38.921875 18.109375 30.90625 
L 18.109375 0 
L 9.078125 0 
L 9.078125 54.6875 
L 18.109375 54.6875 
L 18.109375 46.1875 
Q 21.34375 51.125 25.703125 53.5625 
Q 30.078125 56 35.796875 56 
Q 45.21875 56 50.046875 50.171875 
Q 54.890625 44.34375 54.890625 33.015625 
" id="BitstreamVeraSans-Roman-6e"/>
      <path d="M 41.109375 46.296875 
Q 39.59375 47.171875 37.8125 47.578125 
Q 36.03125 48 33.890625 48 
Q 26.265625 48 22.1875 43.046875 
Q 18.109375 38.09375 18.109375 28.8125 
L 18.109375 0 
L 9.078125 0 
L 9.078125 54.6875 
L 18.109375 54.6875 
L 18.109375 46.1875 
Q 20.953125 51.171875 25.484375 53.578125 
Q 30.03125 56 36.53125 56 
Q 37.453125 56 38.578125 55.875 
Q 39.703125 55.765625 41.0625 55.515625 
z
" id="BitstreamVeraSans-Roman-72"/>
      <path d="M 56.203125 29.59375 
L 56.203125 25.203125 
L 14.890625 25.203125 
Q 15.484375 15.921875 20.484375 11.0625 
Q 25.484375 6.203125 34.421875 6.203125 
Q 39.59375 6.203125 44.453125 7.46875 
Q 49.3125 8.734375 54.109375 11.28125 
L 54.109375 2.78125 
Q 49.265625 0.734375 44.1875 -0.34375 
Q 39.109375 -1.421875 33.890625 -1.421875 
Q 20.796875 -1.421875 13.15625 6.1875 
Q 5.515625 13.8125 5.515625 26.8125 
Q 5.515625 40.234375 12.765625 48.109375 
Q 20.015625 56 32.328125 56 
Q 43.359375 56 49.78125 48.890625 
Q 56.203125 41.796875 56.203125 29.59375 
M 47.21875 32.234375 
Q 47.125 39.59375 43.09375 43.984375 
Q 39.0625 48.390625 32.421875 48.390625 
Q 24.90625 48.390625 20.390625 44.140625 
Q 15.875 39.890625 15.1875 32.171875 
z
" id="BitstreamVeraSans-Roman-65"/>
      <path d="M 9.421875 54.6875 
L 18.40625 54.6875 
L 18.40625 0 
L 9.421875 0 
z
M 9.421875 75.984375 
L 18.40625 75.984375 
L 18.40625 64.59375 
L 9.421875 64.59375 
z
" id="BitstreamVeraSans-Roman-69"/>
      <path d="M 4.890625 31.390625 
L 31.203125 31.390625 
L 31.203125 23.390625 
L 4.890625 23.390625 
z
" id="BitstreamVeraSans-Roman-2d"/>
      <path d="M 45.40625 46.390625 
L 45.40625 75.984375 
L 54.390625 75.984375 
L 54.390625 0 
L 45.40625 0 
L 45.40625 8.203125 
Q 42.578125 3.328125 38.25 0.953125 
Q 33.9375 -1.421875 27.875 -1.421875 
Q 17.96875 -1.421875 11.734375 6.484375 
Q 5.515625 14.40625 5.515625 27.296875 
Q 5.515625 40.1875 11.734375 48.09375 
Q 17.96875 56 27.875 56 
Q 33.9375 56 38.25 53.625 
Q 42.578125 51.265625 45.40625 46.390625 
M 14.796875 27.296875 
Q 14.796875 17.390625 18.875 11.75 
Q 22.953125 6.109375 30.078125 6.109375 
Q 37.203125 6.109375 41.296875 11.75 
Q 45.40625 17.390625 45.40625 27.296875 
Q 45.40625 37.203125 41.296875 42.84375 
Q 37.203125 48.484375 30.078125 48.484375 
Q 22.953125 48.484375 18.875 42.84375 
Q 14.796875 37.203125 14.796875 27.296875 
" id="BitstreamVeraSans-Roman-64"/>
      <path d="M 2.984375 54.6875 
L 12.5 54.6875 
L 29.59375 8.796875 
L 46.6875 54.6875 
L 56.203125 54.6875 
L 35.6875 0 
L 23.484375 0 
z
" id="BitstreamVeraSans-Roman-76"/>
      <path d="M 4.203125 54.6875 
L 13.1875 54.6875 
L 24.421875 12.015625 
L 35.59375 54.6875 
L 46.1875 54.6875 
L 57.421875 12.015625 
L 68.609375 54.6875 
L 77.59375 54.6875 
L 63.28125 0 
L 52.6875 0 
L 40.921875 44.828125 
L 29.109375 0 
L 18.5 0 
z
" id="BitstreamVeraSans-Roman-77"/>
      <path d="M 18.3125 70.21875 
L 18.3125 54.6875 
L 36.8125 54.6875 
L 36.8125 47.703125 
L 18.3125 47.703125 
L 18.3125 18.015625 
Q 18.3125 11.328125 20.140625 9.421875 
Q 21.96875 7.515625 27.59375 7.515625 
L 36.8125 7.515625 
L 36.8125 0 
L 27.59375 0 
Q 17.1875 0 13.234375 3.875 
Q 9.28125 7.765625 9.28125 18.015625 
L 9.28125 47.703125 
L 2.6875 47.703125 
L 2.6875 54.6875 
L 9.28125 54.6875 
L 9.28125 70.21875 
z
" id="BitstreamVeraSans-Roman-74"/>
      <path d="M 34.28125 27.484375 
Q 23.390625 27.484375 19.1875 25 
Q 14.984375 22.515625 14.984375 16.5 
Q 14.984375 11.71875 18.140625 8.90625 
Q 21.296875 6.109375 26.703125 6.109375 
Q 34.1875 6.109375 38.703125 11.40625 
Q 43.21875 16.703125 43.21875 25.484375 
L 43.21875 27.484375 
z
M 52.203125 31.203125 
L 52.203125 0 
L 43.21875 0 
L 43.21875 8.296875 
Q 40.140625 3.328125 35.546875 0.953125 
Q 30.953125 -1.421875 24.3125 -1.421875 
Q 15.921875 -1.421875 10.953125 3.296875 
Q 6 8.015625 6 15.921875 
Q 6 25.140625 12.171875 29.828125 
Q 18.359375 34.515625 30.609375 34.515625 
L 43.21875 34.515625 
L 43.21875 35.40625 
Q 43.21875 41.609375 39.140625 45 
Q 35.0625 48.390625 27.6875 48.390625 
Q 23 48.390625 18.546875 47.265625 
Q 14.109375 46.140625 10.015625 43.890625 
L 10.015625 52.203125 
Q 14.9375 54.109375 19.578125 55.046875 
Q 24.21875 56 28.609375 56 
Q 40.484375 56 46.34375 49.84375 
Q 52.203125 43.703125 52.203125 31.203125 
" id="BitstreamVeraSans-Roman-61"/>
      <path d="M 44.28125 53.078125 
L 44.28125 44.578125 
Q 40.484375 46.53125 36.375 47.5 
Q 32.28125 48.484375 27.875 48.484375 
Q 21.1875 48.484375 17.84375 46.4375 
Q 14.5 44.390625 14.5 40.28125 
Q 14.5 37.15625 16.890625 35.375 
Q 19.28125 33.59375 26.515625 31.984375 
L 29.59375 31.296875 
Q 39.15625 29.25 43.1875 25.515625 
Q 47.21875 21.78125 47.21875 15.09375 
Q 47.21875 7.46875 41.1875 3.015625 
Q 35.15625 -1.421875 24.609375 -1.421875 
Q 20.21875 -1.421875 15.453125 -0.5625 
Q 10.6875 0.296875 5.421875 2 
L 5.421875 11.28125 
Q 10.40625 8.6875 15.234375 7.390625 
Q 20.0625 6.109375 24.8125 6.109375 
Q 31.15625 6.109375 34.5625 8.28125 
Q 37.984375 10.453125 37.984375 14.40625 
Q 37.984375 18.0625 35.515625 20.015625 
Q 33.0625 21.96875 24.703125 23.78125 
L 21.578125 24.515625 
Q 13.234375 26.265625 9.515625 29.90625 
Q 5.8125 33.546875 5.8125 39.890625 
Q 5.8125 47.609375 11.28125 51.796875 
Q 16.75 56 26.8125 56 
Q 31.78125 56 36.171875 55.265625 
Q 40.578125 54.546875 44.28125 53.078125 
" id="BitstreamVeraSans-Roman-73"/>
      <path d="M 48.78125 52.59375 
L 48.78125 44.1875 
Q 44.96875 46.296875 41.140625 47.34375 
Q 37.3125 48.390625 33.40625 48.390625 
Q 24.65625 48.390625 19.8125 42.84375 
Q 14.984375 37.3125 14.984375 27.296875 
Q 14.984375 17.28125 19.8125 11.734375 
Q 24.65625 6.203125 33.40625 6.203125 
Q 37.3125 6.203125 41.140625 7.25 
Q 44.96875 8.296875 48.78125 10.40625 
L 48.78125 2.09375 
Q 45.015625 0.34375 40.984375 -0.53125 
Q 36.96875 -1.421875 32.421875 -1.421875 
Q 20.0625 -1.421875 12.78125 6.34375 
Q 5.515625 14.109375 5.515625 27.296875 
Q 5.515625 40.671875 12.859375 48.328125 
Q 20.21875 56 33.015625 56 
Q 37.15625 56 41.109375 55.140625 
Q 45.0625 54.296875 48.78125 52.59375 
" id="BitstreamVeraSans-Roman-63"/>
      <path d="M 48.6875 27.296875 
Q 48.6875 37.203125 44.609375 42.84375 
Q 40.53125 48.484375 33.40625 48.484375 
Q 26.265625 48.484375 22.1875 42.84375 
Q 18.109375 37.203125 18.109375 27.296875 
Q 18.109375 17.390625 22.1875 11.75 
Q 26.265625 6.109375 33.40625 6.109375 
Q 40.53125 6.109375 44.609375 11.75 
Q 48.6875 17.390625 48.6875 27.296875 
M 18.109375 46.390625 
Q 20.953125 51.265625 25.265625 53.625 
Q 29.59375 56 35.59375 56 
Q 45.5625 56 51.78125 48.09375 
Q 58.015625 40.1875 58.015625 27.296875 
Q 58.015625 14.40625 51.78125 6.484375 
Q 45.5625 -1.421875 35.59375 -1.421875 
Q 29.59375 -1.421875 25.265625 0.953125 
Q 20.953125 3.328125 18.109375 8.203125 
L 18.109375 0 
L 9.078125 0 
L 9.078125 75.984375 
L 18.109375 75.984375 
z
" id="BitstreamVeraSans-Roman-62"/>
     </defs>
     <g transform="translate(134.05625 278.2765625)scale(0.1 -0.1)">
      <use xlink:href="#BitstreamVeraSans-Roman-4f"/>
      <use x="78.7109375" xlink:href="#BitstreamVeraSans-Roman-63"/>
      <use x="133.69140625" xlink:href="#BitstreamVeraSans-Roman-74"/>
      <use x="172.900390625" xlink:href="#BitstreamVeraSans-Roman-61"/>
      <use x="234.1796875" xlink:href="#BitstreamVeraSans-Roman-76"/>
      <use x="293.359375" xlink:href="#BitstreamVeraSans-Roman-65"/>
      <use x="354.8828125" xlink:href="#BitstreamVeraSans-Roman-2d"/>
      <use x="390.966796875" xlink:href="#BitstreamVeraSans-Roman-77"/>
      <use x="472.75390625" xlink:href="#BitstreamVeraSans-Roman-72"/>
      <use x="513.8671875" xlink:href="#BitstreamVeraSans-Roman-61"/>
      <use x="575.146484375" xlink:href="#BitstreamVeraSans-Roman-70"/>
      <use x="638.623046875" xlink:href="#BitstreamVeraSans-Roman-70"/>
      <use x="702.099609375" xlink:href="#BitstreamVeraSans-Roman-65"/>
      <use x="763.623046875" xlink:href="#BitstreamVeraSans-Roman-64"/>
      <use x="827.099609375" xlink:href="#BitstreamVeraSans-Roman-20"/>
      <use x="858.88671875" xlink:href="#BitstreamVeraSans-Roman-64"/>
      <use x="922.36328125" xlink:href="#BitstreamVeraSans-Roman-69"/>
      <use x="950.146484375" xlink:href="#BitstreamVeraSans-Roman-73"/>
      <use x="1002.24609375" xlink:href="#BitstreamVeraSans-Roman-74"/>
      <use x="1041.45507812" xlink:href="#BitstreamVeraSans-Roman-61"/>
      <use x="1102.734375" xlink:href="#BitstreamVeraSans-Roman-6e"/>
      <use x="1166.11328125" xlink:href="#BitstreamVeraSans-Roman-63"/>
      <use x="1221.09375" xlink:href="#BitstreamVeraSans-Roman-65"/>
      <use x="1282.6171875" xlink:href="#BitstreamVeraSans-Roman-20"/>
      <use x="1314.40429688" xlink:href="#BitstreamVeraSans-Roman-62"/>
      <use x="1377.88085938" xlink:href="#BitstreamVeraSans-Roman-65"/>
      <use x="1439.40429688" xlink:href="#BitstreamVeraSans-Roman-74"/>
      <use x="1478.61328125" xlink:href="#BitstreamVeraSans-Roman-77"/>
      <use x="1560.40039062" xlink:href="#BitstreamVeraSans-Roman-65"/>
      <use x="1621.92382812" xlink:href="#BitstreamVeraSans-Roman-65"/>
      <use x="1683.44726562" xlink:href="#BitstreamVeraSans-Roman-6e"/>
     </g>
     <!-- the estimated and annotated tonic (cents) -->
     <defs>
      <path d="M 8.015625 75.875 
L 15.828125 75.875 
Q 23.140625 64.359375 26.78125 53.3125 
Q 30.421875 42.28125 30.421875 31.390625 
Q 30.421875 20.453125 26.78125 9.375 
Q 23.140625 -1.703125 15.828125 -13.1875 
L 8.015625 -13.1875 
Q 14.5 -2 17.703125 9.0625 
Q 20.90625 20.125 20.90625 31.390625 
Q 20.90625 42.671875 17.703125 53.65625 
Q 14.5 64.65625 8.015625 75.875 
" id="BitstreamVeraSans-Roman-29"/>
      <path d="M 52 44.1875 
Q 55.375 50.25 60.0625 53.125 
Q 64.75 56 71.09375 56 
Q 79.640625 56 84.28125 50.015625 
Q 88.921875 44.046875 88.921875 33.015625 
L 88.921875 0 
L 79.890625 0 
L 79.890625 32.71875 
Q 79.890625 40.578125 77.09375 44.375 
Q 74.3125 48.1875 68.609375 48.1875 
Q 61.625 48.1875 57.5625 43.546875 
Q 53.515625 38.921875 53.515625 30.90625 
L 53.515625 0 
L 44.484375 0 
L 44.484375 32.71875 
Q 44.484375 40.625 41.703125 44.40625 
Q 38.921875 48.1875 33.109375 48.1875 
Q 26.21875 48.1875 22.15625 43.53125 
Q 18.109375 38.875 18.109375 30.90625 
L 18.109375 0 
L 9.078125 0 
L 9.078125 54.6875 
L 18.109375 54.6875 
L 18.109375 46.1875 
Q 21.1875 51.21875 25.484375 53.609375 
Q 29.78125 56 35.6875 56 
Q 41.65625 56 45.828125 52.96875 
Q 50 49.953125 52 44.1875 
" id="BitstreamVeraSans-Roman-6d"/>
      <path d="M 30.609375 48.390625 
Q 23.390625 48.390625 19.1875 42.75 
Q 14.984375 37.109375 14.984375 27.296875 
Q 14.984375 17.484375 19.15625 11.84375 
Q 23.34375 6.203125 30.609375 6.203125 
Q 37.796875 6.203125 41.984375 11.859375 
Q 46.1875 17.53125 46.1875 27.296875 
Q 46.1875 37.015625 41.984375 42.703125 
Q 37.796875 48.390625 30.609375 48.390625 
M 30.609375 56 
Q 42.328125 56 49.015625 48.375 
Q 55.71875 40.765625 55.71875 27.296875 
Q 55.71875 13.875 49.015625 6.21875 
Q 42.328125 -1.421875 30.609375 -1.421875 
Q 18.84375 -1.421875 12.171875 6.21875 
Q 5.515625 13.875 5.515625 27.296875 
Q 5.515625 40.765625 12.171875 48.375 
Q 18.84375 56 30.609375 56 
" id="BitstreamVeraSans-Roman-6f"/>
      <path d="M 54.890625 33.015625 
L 54.890625 0 
L 45.90625 0 
L 45.90625 32.71875 
Q 45.90625 40.484375 42.875 44.328125 
Q 39.84375 48.1875 33.796875 48.1875 
Q 26.515625 48.1875 22.3125 43.546875 
Q 18.109375 38.921875 18.109375 30.90625 
L 18.109375 0 
L 9.078125 0 
L 9.078125 75.984375 
L 18.109375 75.984375 
L 18.109375 46.1875 
Q 21.34375 51.125 25.703125 53.5625 
Q 30.078125 56 35.796875 56 
Q 45.21875 56 50.046875 50.171875 
Q 54.890625 44.34375 54.890625 33.015625 
" id="BitstreamVeraSans-Roman-68"/>
      <path d="M 31 75.875 
Q 24.46875 64.65625 21.28125 53.65625 
Q 18.109375 42.671875 18.109375 31.390625 
Q 18.109375 20.125 21.3125 9.0625 
Q 24.515625 -2 31 -13.1875 
L 23.1875 -13.1875 
Q 15.875 -1.703125 12.234375 9.375 
Q 8.59375 20.453125 8.59375 31.390625 
Q 8.59375 42.28125 12.203125 53.3125 
Q 15.828125 64.359375 23.1875 75.875 
z
" id="BitstreamVeraSans-Roman-28"/>
     </defs>
     <g transform="translate(115.1828125 289.474375)scale(0.1 -0.1)">
      <use xlink:href="#BitstreamVeraSans-Roman-74"/>
      <use x="39.208984375" xlink:href="#BitstreamVeraSans-Roman-68"/>
      <use x="102.587890625" xlink:href="#BitstreamVeraSans-Roman-65"/>
      <use x="164.111328125" xlink:href="#BitstreamVeraSans-Roman-20"/>
      <use x="195.8984375" xlink:href="#BitstreamVeraSans-Roman-65"/>
      <use x="257.421875" xlink:href="#BitstreamVeraSans-Roman-73"/>
      <use x="309.521484375" xlink:href="#BitstreamVeraSans-Roman-74"/>
      <use x="348.73046875" xlink:href="#BitstreamVeraSans-Roman-69"/>
      <use x="376.513671875" xlink:href="#BitstreamVeraSans-Roman-6d"/>
      <use x="473.92578125" xlink:href="#BitstreamVeraSans-Roman-61"/>
      <use x="535.205078125" xlink:href="#BitstreamVeraSans-Roman-74"/>
      <use x="574.4140625" xlink:href="#BitstreamVeraSans-Roman-65"/>
      <use x="635.9375" xlink:href="#BitstreamVeraSans-Roman-64"/>
      <use x="699.4140625" xlink:href="#BitstreamVeraSans-Roman-20"/>
      <use x="731.201171875" xlink:href="#BitstreamVeraSans-Roman-61"/>
      <use x="792.48046875" xlink:href="#BitstreamVeraSans-Roman-6e"/>
      <use x="855.859375" xlink:href="#BitstreamVeraSans-Roman-64"/>
      <use x="919.3359375" xlink:href="#BitstreamVeraSans-Roman-20"/>
      <use x="951.123046875" xlink:href="#BitstreamVeraSans-Roman-61"/>
      <use x="1012.40234375" xlink:href="#BitstreamVeraSans-Roman-6e"/>
      <use x="1075.78125" xlink:href="#BitstreamVeraSans-Roman-6e"/>
      <use x="1139.16015625" xlink:href="#BitstreamVeraSans-Roman-6f"/>
      <use x="1200.34179688" xlink:href="#BitstreamVeraSans-Roman-74"/>
      <use x="1239.55078125" xlink:href="#BitstreamVeraSans-Roman-61"/>
      <use x="1300.83007812" xlink:href="#BitstreamVeraSans-Roman-74"/>
      <use x="1340.0390625" xlink:href="#BitstreamVeraSans-Roman-65"/>
      <use x="1401.5625" xlink:href="#BitstreamVeraSans-Roman-64"/>
      <use x="1465.0390625" xlink:href="#BitstreamVeraSans-Roman-20"/>
      <use x="1496.82617188" xlink:href="#BitstreamVeraSans-Roman-74"/>
      <use x="1536.03515625" xlink:href="#BitstreamVeraSans-Roman-6f"/>
      <use x="1597.21679688" xlink:href="#BitstreamVeraSans-Roman-6e"/>
      <use x="1660.59570312" xlink:href="#BitstreamVeraSans-Roman-69"/>
      <use x="1688.37890625" xlink:href="#BitstreamVeraSans-Roman-63"/>
      <use x="1743.359375" xlink:href="#BitstreamVeraSans-Roman-20"/>
      <use x="1775.14648438" xlink:href="#BitstreamVeraSans-Roman-28"/>
      <use x="1814.16015625" xlink:href="#BitstreamVeraSans-Roman-63"/>
      <use x="1869.140625" xlink:href="#BitstreamVeraSans-Roman-65"/>
      <use x="1930.6640625" xlink:href="#BitstreamVeraSans-Roman-6e"/>
      <use x="1994.04296875" xlink:href="#BitstreamVeraSans-Roman-74"/>
      <use x="2033.25195312" xlink:href="#BitstreamVeraSans-Roman-73"/>
      <use x="2085.3515625" xlink:href="#BitstreamVeraSans-Roman-29"/>
     </g>
    </g>
   </g>
   <g id="matplotlib.axis_2">
    <g id="ytick_1">
     <g id="line2d_14">
      <defs>
       <path d="M 0 0 
L 4 0 
" id="m1eda273ebf" style="stroke:#000000;stroke-width:0.5;"/>
      </defs>
      <g>
       <use style="stroke:#000000;stroke-width:0.5;" x="54.0" xlink:href="#m1eda273ebf" y="252.0"/>
      </g>
     </g>
     <g id="line2d_15">
      <defs>
       <path d="M 0 0 
L -4 0 
" id="ma5085c53a4" style="stroke:#000000;stroke-width:0.5;"/>
      </defs>
      <g>
       <use style="stroke:#000000;stroke-width:0.5;" x="388.8" xlink:href="#ma5085c53a4" y="252.0"/>
      </g>
     </g>
     <g id="text_8">
      <!-- 0.00 -->
      <defs>
       <path d="M 10.6875 12.40625 
L 21 12.40625 
L 21 0 
L 10.6875 0 
z
" id="BitstreamVeraSans-Roman-2e"/>
      </defs>
      <g transform="translate(27.734375 254.759375)scale(0.1 -0.1)">
       <use xlink:href="#BitstreamVeraSans-Roman-30"/>
       <use x="63.623046875" xlink:href="#BitstreamVeraSans-Roman-2e"/>
       <use x="95.41015625" xlink:href="#BitstreamVeraSans-Roman-30"/>
       <use x="159.033203125" xlink:href="#BitstreamVeraSans-Roman-30"/>
      </g>
     </g>
    </g>
    <g id="ytick_2">
     <g id="line2d_16">
      <g>
       <use style="stroke:#000000;stroke-width:0.5;" x="54.0" xlink:href="#m1eda273ebf" y="224.1"/>
      </g>
     </g>
     <g id="line2d_17">
      <g>
       <use style="stroke:#000000;stroke-width:0.5;" x="388.8" xlink:href="#ma5085c53a4" y="224.1"/>
      </g>
     </g>
     <g id="text_9">
      <!-- 0.02 -->
      <g transform="translate(27.734375 226.859375)scale(0.1 -0.1)">
       <use xlink:href="#BitstreamVeraSans-Roman-30"/>
       <use x="63.623046875" xlink:href="#BitstreamVeraSans-Roman-2e"/>
       <use x="95.41015625" xlink:href="#BitstreamVeraSans-Roman-30"/>
       <use x="159.033203125" xlink:href="#BitstreamVeraSans-Roman-32"/>
      </g>
     </g>
    </g>
    <g id="ytick_3">
     <g id="line2d_18">
      <g>
       <use style="stroke:#000000;stroke-width:0.5;" x="54.0" xlink:href="#m1eda273ebf" y="196.2"/>
      </g>
     </g>
     <g id="line2d_19">
      <g>
       <use style="stroke:#000000;stroke-width:0.5;" x="388.8" xlink:href="#ma5085c53a4" y="196.2"/>
      </g>
     </g>
     <g id="text_10">
      <!-- 0.04 -->
      <g transform="translate(27.734375 198.959375)scale(0.1 -0.1)">
       <use xlink:href="#BitstreamVeraSans-Roman-30"/>
       <use x="63.623046875" xlink:href="#BitstreamVeraSans-Roman-2e"/>
       <use x="95.41015625" xlink:href="#BitstreamVeraSans-Roman-30"/>
       <use x="159.033203125" xlink:href="#BitstreamVeraSans-Roman-34"/>
      </g>
     </g>
    </g>
    <g id="ytick_4">
     <g id="line2d_20">
      <g>
       <use style="stroke:#000000;stroke-width:0.5;" x="54.0" xlink:href="#m1eda273ebf" y="168.3"/>
      </g>
     </g>
     <g id="line2d_21">
      <g>
       <use style="stroke:#000000;stroke-width:0.5;" x="388.8" xlink:href="#ma5085c53a4" y="168.3"/>
      </g>
     </g>
     <g id="text_11">
      <!-- 0.06 -->
      <g transform="translate(27.734375 171.059375)scale(0.1 -0.1)">
       <use xlink:href="#BitstreamVeraSans-Roman-30"/>
       <use x="63.623046875" xlink:href="#BitstreamVeraSans-Roman-2e"/>
       <use x="95.41015625" xlink:href="#BitstreamVeraSans-Roman-30"/>
       <use x="159.033203125" xlink:href="#BitstreamVeraSans-Roman-36"/>
      </g>
     </g>
    </g>
    <g id="ytick_5">
     <g id="line2d_22">
      <g>
       <use style="stroke:#000000;stroke-width:0.5;" x="54.0" xlink:href="#m1eda273ebf" y="140.4"/>
      </g>
     </g>
     <g id="line2d_23">
      <g>
       <use style="stroke:#000000;stroke-width:0.5;" x="388.8" xlink:href="#ma5085c53a4" y="140.4"/>
      </g>
     </g>
     <g id="text_12">
      <!-- 0.08 -->
      <g transform="translate(27.734375 143.159375)scale(0.1 -0.1)">
       <use xlink:href="#BitstreamVeraSans-Roman-30"/>
       <use x="63.623046875" xlink:href="#BitstreamVeraSans-Roman-2e"/>
       <use x="95.41015625" xlink:href="#BitstreamVeraSans-Roman-30"/>
       <use x="159.033203125" xlink:href="#BitstreamVeraSans-Roman-38"/>
      </g>
     </g>
    </g>
    <g id="ytick_6">
     <g id="line2d_24">
      <g>
       <use style="stroke:#000000;stroke-width:0.5;" x="54.0" xlink:href="#m1eda273ebf" y="112.5"/>
      </g>
     </g>
     <g id="line2d_25">
      <g>
       <use style="stroke:#000000;stroke-width:0.5;" x="388.8" xlink:href="#ma5085c53a4" y="112.5"/>
      </g>
     </g>
     <g id="text_13">
      <!-- 0.10 -->
      <g transform="translate(27.734375 115.259375)scale(0.1 -0.1)">
       <use xlink:href="#BitstreamVeraSans-Roman-30"/>
       <use x="63.623046875" xlink:href="#BitstreamVeraSans-Roman-2e"/>
       <use x="95.41015625" xlink:href="#BitstreamVeraSans-Roman-31"/>
       <use x="159.033203125" xlink:href="#BitstreamVeraSans-Roman-30"/>
      </g>
     </g>
    </g>
    <g id="ytick_7">
     <g id="line2d_26">
      <g>
       <use style="stroke:#000000;stroke-width:0.5;" x="54.0" xlink:href="#m1eda273ebf" y="84.6"/>
      </g>
     </g>
     <g id="line2d_27">
      <g>
       <use style="stroke:#000000;stroke-width:0.5;" x="388.8" xlink:href="#ma5085c53a4" y="84.6"/>
      </g>
     </g>
     <g id="text_14">
      <!-- 0.12 -->
      <g transform="translate(27.734375 87.359375)scale(0.1 -0.1)">
       <use xlink:href="#BitstreamVeraSans-Roman-30"/>
       <use x="63.623046875" xlink:href="#BitstreamVeraSans-Roman-2e"/>
       <use x="95.41015625" xlink:href="#BitstreamVeraSans-Roman-31"/>
       <use x="159.033203125" xlink:href="#BitstreamVeraSans-Roman-32"/>
      </g>
     </g>
    </g>
    <g id="ytick_8">
     <g id="line2d_28">
      <g>
       <use style="stroke:#000000;stroke-width:0.5;" x="54.0" xlink:href="#m1eda273ebf" y="56.7"/>
      </g>
     </g>
     <g id="line2d_29">
      <g>
       <use style="stroke:#000000;stroke-width:0.5;" x="388.8" xlink:href="#ma5085c53a4" y="56.7"/>
      </g>
     </g>
     <g id="text_15">
      <!-- 0.14 -->
      <g transform="translate(27.734375 59.459375)scale(0.1 -0.1)">
       <use xlink:href="#BitstreamVeraSans-Roman-30"/>
       <use x="63.623046875" xlink:href="#BitstreamVeraSans-Roman-2e"/>
       <use x="95.41015625" xlink:href="#BitstreamVeraSans-Roman-31"/>
       <use x="159.033203125" xlink:href="#BitstreamVeraSans-Roman-34"/>
      </g>
     </g>
    </g>
    <g id="ytick_9">
     <g id="line2d_30">
      <g>
       <use style="stroke:#000000;stroke-width:0.5;" x="54.0" xlink:href="#m1eda273ebf" y="28.8"/>
      </g>
     </g>
     <g id="line2d_31">
      <g>
       <use style="stroke:#000000;stroke-width:0.5;" x="388.8" xlink:href="#ma5085c53a4" y="28.8"/>
      </g>
     </g>
     <g id="text_16">
      <!-- 0.16 -->
      <g transform="translate(27.734375 31.559375)scale(0.1 -0.1)">
       <use xlink:href="#BitstreamVeraSans-Roman-30"/>
       <use x="63.623046875" xlink:href="#BitstreamVeraSans-Roman-2e"/>
       <use x="95.41015625" xlink:href="#BitstreamVeraSans-Roman-31"/>
       <use x="159.033203125" xlink:href="#BitstreamVeraSans-Roman-36"/>
      </g>
     </g>
    </g>
    <g id="text_17">
     <!-- Relative occurence -->
     <defs>
      <path d="M 44.390625 34.1875 
Q 47.5625 33.109375 50.5625 29.59375 
Q 53.5625 26.078125 56.59375 19.921875 
L 66.609375 0 
L 56 0 
L 46.6875 18.703125 
Q 43.0625 26.03125 39.671875 28.421875 
Q 36.28125 30.8125 30.421875 30.8125 
L 19.671875 30.8125 
L 19.671875 0 
L 9.8125 0 
L 9.8125 72.90625 
L 32.078125 72.90625 
Q 44.578125 72.90625 50.734375 67.671875 
Q 56.890625 62.453125 56.890625 51.90625 
Q 56.890625 45.015625 53.6875 40.46875 
Q 50.484375 35.9375 44.390625 34.1875 
M 19.671875 64.796875 
L 19.671875 38.921875 
L 32.078125 38.921875 
Q 39.203125 38.921875 42.84375 42.21875 
Q 46.484375 45.515625 46.484375 51.90625 
Q 46.484375 58.296875 42.84375 61.546875 
Q 39.203125 64.796875 32.078125 64.796875 
z
" id="BitstreamVeraSans-Roman-52"/>
      <path d="M 8.5 21.578125 
L 8.5 54.6875 
L 17.484375 54.6875 
L 17.484375 21.921875 
Q 17.484375 14.15625 20.5 10.265625 
Q 23.53125 6.390625 29.59375 6.390625 
Q 36.859375 6.390625 41.078125 11.03125 
Q 45.3125 15.671875 45.3125 23.6875 
L 45.3125 54.6875 
L 54.296875 54.6875 
L 54.296875 0 
L 45.3125 0 
L 45.3125 8.40625 
Q 42.046875 3.421875 37.71875 1 
Q 33.40625 -1.421875 27.6875 -1.421875 
Q 18.265625 -1.421875 13.375 4.4375 
Q 8.5 10.296875 8.5 21.578125 
" id="BitstreamVeraSans-Roman-75"/>
      <path d="M 9.421875 75.984375 
L 18.40625 75.984375 
L 18.40625 0 
L 9.421875 0 
z
" id="BitstreamVeraSans-Roman-6c"/>
     </defs>
     <g transform="translate(20.6546875 188.2265625)rotate(-90.0)scale(0.1 -0.1)">
      <use xlink:href="#BitstreamVeraSans-Roman-52"/>
      <use x="69.419921875" xlink:href="#BitstreamVeraSans-Roman-65"/>
      <use x="130.943359375" xlink:href="#BitstreamVeraSans-Roman-6c"/>
      <use x="158.7265625" xlink:href="#BitstreamVeraSans-Roman-61"/>
      <use x="220.005859375" xlink:href="#BitstreamVeraSans-Roman-74"/>
      <use x="259.21484375" xlink:href="#BitstreamVeraSans-Roman-69"/>
      <use x="286.998046875" xlink:href="#BitstreamVeraSans-Roman-76"/>
      <use x="346.177734375" xlink:href="#BitstreamVeraSans-Roman-65"/>
      <use x="407.701171875" xlink:href="#BitstreamVeraSans-Roman-20"/>
      <use x="439.48828125" xlink:href="#BitstreamVeraSans-Roman-6f"/>
      <use x="500.669921875" xlink:href="#BitstreamVeraSans-Roman-63"/>
      <use x="555.650390625" xlink:href="#BitstreamVeraSans-Roman-63"/>
      <use x="610.630859375" xlink:href="#BitstreamVeraSans-Roman-75"/>
      <use x="674.009765625" xlink:href="#BitstreamVeraSans-Roman-72"/>
      <use x="715.091796875" xlink:href="#BitstreamVeraSans-Roman-65"/>
      <use x="776.615234375" xlink:href="#BitstreamVeraSans-Roman-6e"/>
      <use x="839.994140625" xlink:href="#BitstreamVeraSans-Roman-63"/>
      <use x="894.974609375" xlink:href="#BitstreamVeraSans-Roman-65"/>
     </g>
    </g>
   </g>
  </g>
 </g>
 <defs>
  <clipPath id="pa75a625027">
   <rect height="223.2" width="334.8" x="54.0" y="28.8"/>
  </clipPath>
 </defs>
</svg>
